<svg width="34" height="27" viewBox="0 0 34 27" fill="none" xmlns="http://www.w3.org/2000/svg">
<path d="M0.149486 19.2741C0.226829 19.4159 0.394405 19.59 0.516868 19.6609C0.742454 19.7962 0.794017 19.7962 9.39851 19.8155C17.2747 19.8284 18.0675 19.8413 18.2157 19.938C18.5637 20.1636 18.5637 20.1765 18.5637 23.2251C18.5637 24.946 18.5895 26.1384 18.6282 26.2866C18.712 26.5767 19.0665 26.8989 19.3694 26.9569C19.9624 27.0665 19.5305 27.4597 26.5044 20.4859C33.4911 13.4991 33.085 13.9503 32.969 13.338C32.9303 13.1189 32.2214 12.3841 26.5044 6.66711C20.7874 0.950116 20.0526 0.241131 19.8335 0.20246C19.3243 0.10578 18.8796 0.324921 18.6669 0.776093C18.5766 0.969453 18.5637 1.34973 18.5637 3.84406C18.5637 6.24172 18.5509 6.72512 18.4671 6.89914C18.2673 7.31808 18.944 7.2923 9.36628 7.32453C0.69089 7.35676 0.652217 7.35676 0.478194 7.49211C0.381515 7.56301 0.239719 7.7048 0.168819 7.80148C0.0334693 7.97551 0.0334693 8.03351 0.0205797 13.4991L0.00124324 19.0228L0.149486 19.2741Z" fill="#515595"/>
</svg>
