<svg width="22" height="17" viewBox="0 0 22 17" fill="none" xmlns="http://www.w3.org/2000/svg">
<path d="M14.6422 0.749957C14.2951 0.864996 14.0991 1.2525 14.1887 1.64C14.2111 1.75504 15.1461 2.8025 16.977 4.78844L19.7261 7.7734L6.75889 7.78551L-6.21389 7.80367L-6.37066 7.93082C-6.45465 7.99742 -6.56663 8.16695 -6.61142 8.30621C-6.68421 8.53023 -6.67861 8.57867 -6.59462 8.76637C-6.54423 8.88141 -6.43225 9.02672 -6.34827 9.08727C-6.20269 9.19019 -5.60361 9.19625 6.76449 9.21441L19.7261 9.22652L17.005 12.1812C15.5045 13.8039 14.2503 15.2086 14.2223 15.2994C14.0823 15.6929 14.2223 16.0623 14.5694 16.2197C14.9614 16.3953 14.883 16.4679 18.5335 12.5142C20.8291 10.0318 21.9489 8.77848 21.9713 8.66344C21.9937 8.57262 21.9937 8.4273 21.9713 8.33043C21.9489 8.22144 20.8347 6.97418 18.5671 4.50992C15.6892 1.39176 14.9614 0.647028 14.8214 0.695465C14.8102 0.695465 14.7318 0.725739 14.6422 0.749957Z" fill="white"/>
</svg>
