<svg width="47" height="41" viewBox="0 0 47 41" fill="none" xmlns="http://www.w3.org/2000/svg">
<path d="M36.5354 0.883433C36.3059 1.01195 35.1125 1.69125 33.8825 2.40726C32.6616 3.12328 31.6151 3.7016 31.5784 3.7016C31.5325 3.7016 30.4309 3.31605 29.1274 2.83871C27.8239 2.36136 26.502 1.92074 26.1807 1.86566C25.4188 1.70961 24.4274 1.79222 23.6838 2.06761C22.9311 2.343 15.2661 6.74925 14.7428 7.20824C14.2563 7.6305 13.8157 8.44749 13.6872 9.16351C13.3383 11.1188 14.8071 12.9914 16.7991 13.1383C17.9833 13.2209 17.6436 13.377 23.8674 9.78773C25.7125 8.72288 27.3833 7.80492 27.576 7.74066C28.1543 7.55707 29.054 7.66722 29.6965 7.99769C29.9995 8.15374 33.8458 10.366 38.2336 12.9088C45.8711 17.3334 46.2291 17.5262 46.4311 17.3977C46.7157 17.2141 47.0002 16.6358 47.0002 16.2502C47.0002 15.8922 47.1104 16.085 42.0891 7.52953C39.5647 3.23343 38.2336 1.04867 38.0592 0.920152C37.6553 0.626402 37.0311 0.617223 36.5354 0.883433Z" fill="#494D86"/>
<path d="M8.76662 2.7926C8.61057 2.82932 8.37189 2.98538 8.24338 3.12307C8.0506 3.3342 1.35861 15.6809 0.284587 17.8106C-0.0458814 18.4807 -0.0734205 18.8662 0.19279 19.3069C0.422283 19.674 0.550798 19.7934 1.0465 20.0504C1.33107 20.2065 1.41369 20.2156 1.47795 20.1147C1.52385 20.0504 1.88185 19.4354 2.2674 18.7561C3.3506 16.8742 4.41545 15.9287 6.01271 15.4239C6.53596 15.2586 6.86642 15.2219 7.75685 15.2219C8.71154 15.2311 8.95021 15.2586 9.57443 15.4789C10.3731 15.7543 11.1625 16.2225 11.6674 16.709L11.9979 17.0211L12.5395 16.8651C13.2004 16.6631 14.6141 16.6448 15.3301 16.8192C15.6055 16.8834 16.1838 17.1037 16.6153 17.3057C18.0473 17.985 19.3141 19.5364 19.6537 21.0326C19.7639 21.4824 19.7914 21.5192 20.1403 21.611C20.8563 21.8037 21.9395 22.4371 22.527 23.0155C23.2246 23.7131 23.6928 24.4658 24.0141 25.4297L24.2619 26.1733L24.9137 26.4119C26.2998 26.9168 27.4473 27.9449 28.099 29.2668C28.6223 30.3408 28.76 31.0018 28.7141 32.1584C28.6498 33.4711 28.4479 34.0127 27.2545 36.0781C26.5569 37.2807 26.2906 37.8223 26.3733 37.859C26.4283 37.8957 27.3463 38.419 28.3928 39.0248C30.4399 40.209 30.8989 40.3834 31.7526 40.3008C32.5512 40.2365 33.1571 39.9244 33.7354 39.3002C34.8461 38.0977 34.8645 36.3994 33.7721 35.1418C33.5059 34.8297 33.4967 34.8022 33.6895 34.9215C34.2678 35.2887 35.4336 35.9313 35.8375 36.1149C36.8565 36.5647 38.261 36.2893 39.0871 35.4815C39.7848 34.793 39.9776 34.3156 39.9776 33.2141C39.9776 32.2043 39.8582 31.8555 39.2615 31.1854L38.9678 30.8457L39.8858 31.3414C40.8037 31.8371 40.8037 31.8371 41.6299 31.8371C42.603 31.8371 43.0711 31.6627 43.7412 31.0477C45.008 29.8727 45.0723 27.8899 43.8789 26.6598C43.6862 26.4578 43.1996 26.109 42.8049 25.8703C42.144 25.4848 42.1164 25.4573 42.4561 25.5215C43.9248 25.8153 45.4028 25.0717 46.0178 23.7315C46.3299 23.0614 46.3024 21.9139 45.9719 21.2254C45.825 20.9408 45.5496 20.5461 45.3477 20.3442C45.1182 20.1239 43.7321 19.261 41.786 18.141C40.0326 17.1221 36.3424 14.9924 33.5793 13.3951C30.8162 11.7979 28.4938 10.4668 28.4295 10.4393C28.3653 10.4209 26.4926 11.449 24.2711 12.725C19.5252 15.4698 19.461 15.5065 18.5613 15.736C16.2389 16.3235 13.6043 15.4147 12.1631 13.5145C11.3094 12.3762 10.8963 11.1553 10.8963 9.75999C10.8963 8.13518 11.4838 6.65725 12.5854 5.49143L13.2188 4.82131L11.5389 3.84827C9.39084 2.61819 9.37248 2.60901 8.76662 2.7926Z" fill="#494D86"/>
<path d="M6.82041 18.0586C6.30635 18.2238 5.90245 18.49 5.48936 18.9123C5.17725 19.2427 1.92764 24.7506 1.52373 25.641C1.23916 26.2744 1.25752 27.3576 1.57881 28.0369C1.88174 28.6978 2.4417 29.267 3.11182 29.5791C3.54327 29.781 3.7544 29.8177 4.40616 29.8177C5.32413 29.8177 5.9667 29.5699 6.5542 28.9824C6.7837 28.7529 6.88467 28.6886 6.83877 28.808C6.80206 28.9089 6.74698 29.322 6.72862 29.7259C6.6919 30.3226 6.71944 30.5521 6.87549 30.9744C7.15088 31.6996 7.68331 32.2687 8.42686 32.6359C8.96846 32.9021 9.12452 32.9388 9.77627 32.9388C10.6575 32.9297 11.3368 32.6634 11.906 32.0943L12.264 31.7363L12.1446 32.1953C11.9886 32.8011 11.9978 33.2142 12.1722 33.8109C12.8331 36.0507 15.5136 36.7943 17.2577 35.2246L17.6157 34.9033L17.5148 35.2521C17.3587 35.8304 17.4689 36.9045 17.7442 37.4369C18.0288 37.9877 18.6255 38.5843 19.1855 38.8689C19.8005 39.181 20.8929 39.2177 21.5997 38.9515C22.5269 38.6027 22.8757 38.1713 24.4087 35.5091C25.1706 34.1781 25.8315 32.9297 25.8958 32.6818C26.061 32.0209 25.9601 31.1029 25.6663 30.5246C24.7208 28.6611 22.3249 28.2388 20.8011 29.6709L20.4431 30.0013L20.7827 29.4047C21.2509 28.5877 21.3886 28.2572 21.5079 27.6881C21.7007 26.7793 21.3151 25.6593 20.5808 24.98C19.369 23.8693 17.6249 23.8418 16.3857 24.9158L16.0276 25.2279L16.3306 24.723C16.9732 23.6398 17.0282 23.4562 17.0282 22.5199C17.0282 21.7763 16.9915 21.5744 16.8079 21.1888C16.1562 19.867 14.6874 19.1785 13.3013 19.5273C12.3007 19.7843 11.7315 20.2617 11.089 21.3908C10.8778 21.758 10.6942 22.0425 10.6759 22.0334C10.6667 22.015 10.6942 21.8406 10.7493 21.6386C10.9696 20.8492 10.6483 19.6375 10.0241 18.9306C9.86807 18.747 9.48252 18.4625 9.16124 18.2972C8.68389 18.0402 8.47276 17.9851 7.89444 17.9576C7.48135 17.9392 7.04991 17.9851 6.82041 18.0586Z" fill="#494D86"/>
</svg>
