<svg width="32" height="41" viewBox="0 0 32 41" fill="none" xmlns="http://www.w3.org/2000/svg">
<path d="M1.375 0.168165C1.19531 0.264259 1.01562 0.448438 0.921875 0.640626C0.765625 0.95293 0.765625 1.08106 0.765625 16.8965C0.765625 32.7119 0.765625 32.84 0.921875 33.1523C1.02344 33.3605 1.1875 33.5287 1.39062 33.6328C1.69531 33.793 1.82812 33.793 12.4844 33.793C23.1406 33.793 23.2734 33.793 23.5781 33.6328C23.7812 33.5287 23.9453 33.3605 24.0469 33.1523C24.2031 32.84 24.2031 32.7119 24.2031 16.8965C24.2031 1.08106 24.2031 0.95293 24.0469 0.640626C23.9453 0.432423 23.7812 0.264259 23.5781 0.160157C23.2734 7.86036e-07 23.1484 7.86036e-07 12.4688 7.86036e-07C1.86719 0.0080086 1.65625 0.0080086 1.375 0.168165ZM13.0312 6.24609C13.3828 6.43027 13.6562 6.88672 13.6562 7.28711C13.6562 7.6875 13.3828 8.14395 13.0312 8.32813C12.7344 8.48027 12.5781 8.48828 8.96094 8.48828C5.21094 8.48828 5.20312 8.48828 4.89062 8.31211C4.10156 7.85566 4.09375 6.75859 4.875 6.27813L5.17969 6.08594H8.95312C12.5781 6.08594 12.7344 6.09395 13.0312 6.24609ZM20.0625 11.0508C20.4141 11.235 20.6875 11.6914 20.6875 12.0918C20.6875 12.4922 20.4141 12.9486 20.0625 13.1328C19.7656 13.293 19.6172 13.293 12.4766 13.293H5.20312L4.89062 13.1168C4.10156 12.6604 4.09375 11.5633 4.875 11.0828L5.17969 10.8906H12.4688C19.6172 10.8906 19.7656 10.8906 20.0625 11.0508ZM20.0625 15.8555C20.4141 16.0396 20.6875 16.4961 20.6875 16.8965C20.6875 17.2969 20.4141 17.7533 20.0625 17.9375C19.7656 18.0977 19.6172 18.0977 12.4766 18.0977H5.20312L4.89062 17.9215C4.10156 17.465 4.09375 16.368 4.875 15.8875L5.17969 15.6953H12.4688C19.6172 15.6953 19.7656 15.6953 20.0625 15.8555ZM20.0625 20.6602C20.4141 20.8443 20.6875 21.3008 20.6875 21.7012C20.6875 22.1016 20.4141 22.558 20.0625 22.7422C19.7656 22.9023 19.6172 22.9023 12.4766 22.9023H5.20312L4.89062 22.7262C4.10156 22.2697 4.09375 21.1727 4.875 20.6922L5.17969 20.5H12.4688C19.6172 20.5 19.7656 20.5 20.0625 20.6602ZM20.0625 25.4648C20.4141 25.649 20.6875 26.1055 20.6875 26.5059C20.6875 26.9063 20.4141 27.3627 20.0625 27.5469C19.7734 27.699 19.6094 27.707 17.1641 27.707C14.625 27.707 14.5703 27.707 14.2656 27.5309C13.4766 27.0744 13.4688 25.9773 14.25 25.4969C14.5547 25.3047 14.5625 25.3047 17.1562 25.3047C19.6094 25.3047 19.7734 25.3127 20.0625 25.4648Z" fill="#494D86"/>
<path d="M26.5469 20.0996C26.5469 29.1725 26.5234 33.0242 26.4609 33.3285C26.3359 33.9451 25.8828 34.7699 25.4531 35.1863C25.0156 35.6107 24.3281 35.9791 23.75 36.1072C23.4609 36.1713 21.0234 36.1953 15.5703 36.1953H7.79688V38.1172C7.79688 39.8949 7.8125 40.0711 7.95312 40.3594C8.05469 40.5676 8.21875 40.7357 8.42188 40.8398C8.72656 41 8.85938 41 19.5156 41C30.1719 41 30.3047 41 30.6094 40.8398C30.8125 40.7357 30.9766 40.5676 31.0781 40.3594C31.2344 40.0471 31.2344 39.9189 31.2344 24.1436C31.2344 8.36816 31.2344 8.24004 31.0781 7.92774C30.9766 7.71953 30.8125 7.55137 30.6094 7.44727C30.3281 7.30313 30.1562 7.28711 28.4219 7.28711H26.5469V20.0996Z" fill="#494D86"/>
</svg>
