<svg width="50" height="36" viewBox="0 0 50 36" fill="none" xmlns="http://www.w3.org/2000/svg">
<path d="M3.27189 0.578127C2.97892 0.656252 2.69572 0.763674 2.63713 0.822268C2.5297 0.92969 23.7406 22.209 24.1899 22.4531C24.5317 22.6289 25.3715 22.6289 25.7133 22.4531C26.1625 22.209 47.3735 0.92969 47.266 0.822268C47.2074 0.763674 46.9047 0.656252 46.5824 0.578127C46.0649 0.441408 43.6723 0.421877 24.9028 0.431643C6.63127 0.431643 3.74064 0.451174 3.27189 0.578127Z" fill="#494D86"/>
<path d="M0.175781 3.46875C0.00976562 3.95703 0 4.66992 0 18C0 31.3301 0.00976562 32.043 0.175781 32.5215C0.273438 32.8047 0.390625 33.0391 0.419922 33.0391C0.458984 33.0391 3.87695 29.6504 8.00781 25.5195L15.5273 18L8.00781 10.4805C3.87695 6.33984 0.458984 2.96094 0.419922 2.96094C0.390625 2.96094 0.273438 3.19531 0.175781 3.46875Z" fill="#494D86"/>
<path d="M41.8945 10.4805L34.375 18L41.8945 25.5195C46.0254 29.6504 49.4434 33.0391 49.4824 33.0391C49.5117 33.0391 49.6289 32.8047 49.7266 32.5215C49.8926 32.043 49.9023 31.3301 49.9023 18C49.9023 4.66992 49.8926 3.95703 49.7266 3.46875C49.6289 3.19531 49.5117 2.96094 49.4824 2.96094C49.4434 2.96094 46.0254 6.33984 41.8945 10.4805Z" fill="#494D86"/>
<path d="M10.0098 27.6191C5.17577 32.4531 2.57812 35.1191 2.63671 35.1777C2.69531 35.2363 2.99804 35.3438 3.32031 35.4219C3.83788 35.5586 6.24023 35.5781 24.9512 35.5781C43.6621 35.5781 46.0644 35.5586 46.582 35.4219C46.9043 35.3438 47.207 35.2363 47.2656 35.1777C47.3242 35.1191 44.7266 32.4531 39.873 27.5996L32.3828 20.1094L30.0586 22.4043C27.9297 24.5137 27.666 24.7383 26.9629 25.0898L26.1816 25.4707H24.9512H23.7207L22.9394 25.0898C22.2363 24.7383 21.9629 24.5039 19.8633 22.4238C18.6035 21.1738 17.5488 20.1484 17.5195 20.1484C17.5 20.1484 14.1211 23.5078 10.0098 27.6191Z" fill="#494D86"/>
</svg>
