<svg width="211" height="38" viewBox="0 0 211 38" fill="none" xmlns="http://www.w3.org/2000/svg">
<path d="M17.6002 0.03442C16.9662 0.0671501 16.2416 0.132607 15.9946 0.189884C15.7476 0.238976 15.3935 0.320801 15.2124 0.353527C15.0312 0.39444 14.7512 0.451714 14.5948 0.484444C13.8702 0.607178 11.3588 1.50723 10.766 1.84269C10.6754 1.89997 10.4202 2.02271 10.2061 2.12907C9.8273 2.30908 8.09816 3.35641 8.00758 3.46278C7.98288 3.48732 7.8182 3.61006 7.63705 3.74916C7.4559 3.88007 7.26652 4.02735 7.20888 4.07645C7.15948 4.11736 6.9948 4.24827 6.83835 4.36282C6.45135 4.6492 4.63987 6.46566 4.34345 6.85841C4.2117 7.03842 3.99762 7.31661 3.86587 7.47207C3.74236 7.62754 3.60238 7.79936 3.56121 7.85664C3.52004 7.90573 3.3636 8.14302 3.21538 8.38848C3.06717 8.62577 2.91896 8.83033 2.88602 8.84669C2.85309 8.86305 2.82015 8.92851 2.82015 8.98579C2.82015 9.04306 2.79545 9.10852 2.76251 9.12489C2.68841 9.14943 2.54843 9.40308 1.98028 10.4995C1.7662 10.925 1.58505 11.3014 1.58505 11.3423C1.58505 11.375 1.49447 11.5877 1.38743 11.8087C1.27216 12.0378 1.10748 12.4878 1.00867 12.8151C0.909859 13.1424 0.761647 13.6088 0.679307 13.8542C0.596966 14.0997 0.48169 14.5252 0.432286 14.7952C0.374648 15.0652 0.300542 15.4498 0.259372 15.6543C-0.0864572 17.438 -0.0864572 20.58 0.259372 22.3637C0.300542 22.5683 0.374648 22.9529 0.432286 23.2229C0.48169 23.4929 0.596966 23.9184 0.679307 24.1638C0.761647 24.4093 0.909859 24.8757 1.00867 25.203C1.10748 25.5303 1.27216 25.9803 1.38743 26.2094C1.49447 26.4303 1.58505 26.6431 1.58505 26.6758C1.58505 26.7167 1.7662 27.0931 1.98028 27.5186C2.54843 28.615 2.68841 28.8686 2.76251 28.8932C2.79545 28.9095 2.82015 28.975 2.82015 29.0323C2.82015 29.0895 2.85309 29.155 2.88602 29.1714C2.91896 29.1795 3.06717 29.3923 3.21538 29.6296C3.3636 29.875 3.52004 30.1123 3.56121 30.1614C3.60238 30.2187 3.74236 30.3905 3.86587 30.546C3.99762 30.7014 4.2117 30.9796 4.34345 31.1596C4.63987 31.5524 6.45135 33.3689 6.83835 33.6552C6.9948 33.7698 7.15948 33.9007 7.20888 33.9416C7.26652 33.9907 7.4559 34.138 7.63705 34.2689C7.8182 34.408 7.98288 34.5307 8.00758 34.5553C8.09816 34.6616 9.8273 35.709 10.2061 35.889C10.4202 35.9954 10.6754 36.1181 10.766 36.1754C11.4247 36.5517 13.8455 37.4027 14.8006 37.5827C15.0724 37.64 15.4594 37.7136 15.6652 37.7545C16.5792 37.9427 17.3861 38 19 38C20.6139 38 21.4208 37.9427 22.3348 37.7545C22.5406 37.7136 22.9276 37.64 23.1994 37.5827C24.1545 37.4027 26.5753 36.5517 27.234 36.1754C27.3246 36.1181 27.5798 35.9954 27.7939 35.889C28.1727 35.709 29.9018 34.6616 29.9924 34.5553C30.0171 34.5307 30.1818 34.408 30.3629 34.2689C30.5441 34.138 30.7335 33.9907 30.7911 33.9416C30.8405 33.9007 31.0052 33.7698 31.1616 33.6552C31.5486 33.3689 33.3601 31.5524 33.6566 31.1596C33.7883 30.9796 34.0024 30.7014 34.1341 30.546C34.2576 30.3905 34.3976 30.2187 34.4388 30.1614C34.48 30.1123 34.6364 29.875 34.7846 29.6296C34.9328 29.3923 35.081 29.1795 35.114 29.1714C35.1469 29.155 35.1798 29.0895 35.1798 29.0323C35.1798 28.975 35.2046 28.9095 35.2457 28.8932C35.3116 28.8686 35.4516 28.615 36.0197 27.5186C36.2338 27.0931 36.415 26.7167 36.415 26.6758C36.415 26.6431 36.5055 26.4303 36.6126 26.2094C36.7278 25.9803 36.8925 25.5303 36.9913 25.203C37.0901 24.8757 37.2384 24.4093 37.3207 24.1638C37.403 23.9184 37.5183 23.4929 37.5677 23.2229C37.6254 22.9529 37.6995 22.5683 37.7406 22.3637C38.0865 20.58 38.0865 17.438 37.7406 15.6543C37.6995 15.4498 37.6254 15.0652 37.5677 14.7952C37.5183 14.5252 37.403 14.0997 37.3207 13.8542C37.2384 13.6088 37.0901 13.1424 36.9913 12.8151C36.8925 12.4878 36.7278 12.0378 36.6126 11.8087C36.5055 11.5877 36.415 11.375 36.415 11.3423C36.415 11.3014 36.2338 10.925 36.0197 10.4995C35.4516 9.40308 35.3116 9.14943 35.2457 9.12489C35.2046 9.10852 35.1798 9.04306 35.1798 8.98579C35.1798 8.92851 35.1469 8.86305 35.114 8.84669C35.081 8.83033 34.9328 8.62577 34.7846 8.38848C34.6364 8.14302 34.48 7.90573 34.4388 7.85664C34.3976 7.79936 34.2576 7.62754 34.1341 7.47207C34.0024 7.31661 33.7883 7.03842 33.6566 6.85841C33.3601 6.46566 31.5486 4.6492 31.1616 4.36282C31.0052 4.24827 30.8405 4.11736 30.7911 4.07645C30.7335 4.02735 30.5441 3.88007 30.3629 3.74916C30.1818 3.61006 30.0171 3.48732 29.9924 3.46278C29.9018 3.35641 28.1727 2.30908 27.7939 2.12907C27.5798 2.02271 27.3246 1.89997 27.234 1.84269C26.5753 1.46631 24.1545 0.61536 23.1994 0.435349C22.9276 0.378075 22.5406 0.304436 22.3348 0.263523C21.1985 0.03442 19.3294 -0.055584 17.6002 0.03442ZM19.2059 4.27282C19.2059 4.31373 19.6587 4.36282 20.2186 4.38737C21.3302 4.43646 22.2442 4.58374 23.117 4.85376C23.9404 5.11559 24.5827 5.35287 24.7226 5.46743C24.7885 5.51652 25.052 5.65562 25.299 5.77017C25.5543 5.88472 25.8095 6.04018 25.8672 6.11382C25.9248 6.18746 26.0236 6.24474 26.0813 6.24474C26.1471 6.24474 26.2048 6.26929 26.2212 6.30201C26.2377 6.34293 26.353 6.43293 26.493 6.50657C26.6247 6.58021 26.7482 6.6784 26.7647 6.72749C26.7976 6.83386 26.3941 6.85022 26.353 6.74385C26.2953 6.58021 25.1261 6.49839 24.171 6.58839C23.6605 6.63749 23.2405 6.71113 23.2405 6.74385C23.2405 6.77658 22.9935 6.86659 22.6888 6.94023C22.3759 7.02205 22.096 7.12024 22.0548 7.16115C22.0054 7.19388 21.9066 7.22661 21.8243 7.22661C21.7419 7.22661 21.6761 7.25934 21.6761 7.29206C21.6761 7.33298 21.5196 7.42298 21.3302 7.5048C21.1326 7.58663 20.7785 7.74209 20.5398 7.84846C20.2598 7.97119 19.9551 8.04483 19.6834 8.04483H19.2635L19.3129 7.58663C19.3376 7.30843 19.4199 7.06296 19.5105 6.96478C19.9222 6.52293 20.2269 6.24474 20.2927 6.24474C20.3339 6.24474 20.4904 6.15473 20.6386 6.04018C20.7868 5.92563 21.0009 5.83563 21.1079 5.82745C21.215 5.82745 21.2561 5.8029 21.1985 5.77835C21.0338 5.71289 20.1281 5.90108 19.7411 6.08109C18.7941 6.50657 18.4566 6.65385 18.3824 6.65385C18.333 6.65385 18.3001 6.68658 18.3001 6.73567C18.3001 6.77658 18.1931 6.86659 18.0696 6.93205C17.8308 7.05478 17.4273 7.38207 16.9415 7.84027C16.7933 7.97119 16.5874 8.15938 16.4804 8.25757C16.3733 8.35575 15.9781 8.7485 15.6076 9.14125C14.8336 9.94311 14.4795 10.1149 14.3807 9.73037C14.3148 9.46036 14.4054 8.69123 14.5536 8.34757C14.6113 8.20029 14.743 8.0121 14.8336 7.93028C15.0641 7.72572 15.0559 7.60299 14.8254 7.73391C14.4631 7.94664 13.615 8.84669 13.2444 9.41126C13.0386 9.73037 12.8657 10.0168 12.8657 10.0413C12.8657 10.074 12.7915 10.2459 12.7092 10.4422C12.6186 10.6304 12.4293 11.0723 12.2893 11.4159C12.1493 11.7596 11.9517 12.1278 11.8529 12.2341C11.7541 12.3405 11.6059 12.5287 11.5235 12.6596C11.2847 13.0196 11.1118 13.1996 10.9965 13.1996C10.9389 13.1996 10.8895 13.2324 10.8895 13.2651C10.8895 13.306 10.7001 13.3878 10.4696 13.4451C10.0826 13.5515 10.0414 13.5924 9.83554 14.0097C9.58852 14.5252 9.68732 14.4761 8.21343 14.7134C7.76056 14.787 7.15125 14.9179 6.85482 14.9997C6.5584 15.0816 6.07259 15.2125 5.77616 15.2861C5.24919 15.417 5.21625 15.4334 5.09274 15.7689C5.01863 15.9571 4.961 16.3498 4.961 16.6607C4.961 17.168 5.01863 17.3808 5.25742 17.6999C5.30683 17.7653 5.3727 18.0272 5.40563 18.2726C5.43034 18.5345 5.55385 18.9108 5.70206 19.1727C5.8338 19.4181 5.99025 19.7127 6.04789 19.8273C6.1467 20.0073 6.15493 19.95 6.17963 19.2709C6.20433 18.5263 6.20433 18.5099 6.42665 18.4281C6.55016 18.379 6.80542 18.3626 6.9948 18.3954C7.27476 18.4363 7.39827 18.5181 7.65352 18.8127C8.04875 19.2954 8.14756 19.5327 8.26284 20.3427C8.37811 21.1282 8.32048 21.5373 8.04875 21.8483C7.88407 22.0446 7.7935 22.0774 7.43944 22.0692C6.89599 22.061 6.6572 21.8483 6.46782 21.1855L6.31961 20.6864L6.26197 21.5455C6.18787 22.5274 6.2455 23.2392 6.41842 23.6647C6.67367 24.2866 6.73131 24.4093 6.78895 24.4093C6.83012 24.4093 6.85482 24.4584 6.85482 24.5239C6.85482 24.5811 6.9948 24.7039 7.15948 24.7775C7.4065 24.9002 7.58765 24.9166 8.2052 24.8675C8.6169 24.8348 9.10271 24.7775 9.28386 24.7366C9.79437 24.6139 10.6425 24.6384 11.0295 24.7857C11.3259 24.9002 11.4 24.9739 11.4741 25.2357C11.5729 25.563 11.4823 25.9557 11.2436 26.193C11.1859 26.2503 11.1365 26.3567 11.1365 26.4221C11.1365 26.4876 11.1036 26.5367 11.0542 26.5367C11.013 26.5367 10.9718 26.6021 10.9718 26.684C10.9718 26.7658 10.9307 26.8722 10.873 26.9294C10.8154 26.9867 10.766 27.3876 10.7413 27.9113C10.7083 28.6559 10.733 28.8523 10.8566 29.1223C10.9389 29.2941 11.0295 29.4577 11.0542 29.4823C11.0871 29.5068 11.1447 29.5887 11.1941 29.6787C11.26 29.7932 11.2683 29.7278 11.2353 29.4005C11.153 28.5413 11.7129 27.1094 12.1328 27.1094C12.2728 27.1094 12.2893 27.1749 12.2893 27.7804C12.2893 28.1568 12.3469 28.6313 12.4046 28.8441C12.5857 29.4332 13.0797 30.3987 13.3597 30.7014C13.4914 30.8569 13.6561 31.0615 13.722 31.1515C13.8126 31.2906 13.8126 31.2251 13.7055 30.7914C13.442 29.6623 13.5244 28.5495 13.9196 27.7886C14.1008 27.4367 14.1831 27.4449 14.1831 27.8213C14.1831 28.214 14.3889 29.4005 14.5289 29.7932C14.5866 29.965 14.7265 30.2105 14.8418 30.3496C14.9571 30.4887 15.0971 30.6687 15.1547 30.7587C15.2453 30.8978 15.2453 30.8978 15.1712 30.7342C14.9818 30.3251 15.13 28.9095 15.377 28.9095C15.4758 28.9177 15.9122 29.8014 15.9122 29.9978C15.9122 30.0796 15.9452 30.1369 15.9863 30.1369C16.0275 30.1369 16.0934 30.2432 16.1428 30.366C16.2663 30.726 17.3861 31.7815 17.9707 32.0842C18.3495 32.2806 19.7328 32.5915 20.2598 32.5915C20.7374 32.5915 20.9185 32.6815 20.655 32.7797C20.5892 32.8043 19.881 32.8452 19.0659 32.8779C17.6332 32.927 16.3651 32.8534 15.5417 32.6815C14.8501 32.5343 13.1621 31.9288 12.9809 31.7651C12.8904 31.6751 12.7751 31.6097 12.7257 31.6097C12.6269 31.6097 11.7788 31.1924 11.7129 31.1106C11.6882 31.086 11.4576 30.9387 11.1941 30.7914C10.9389 30.6524 10.7248 30.5051 10.7248 30.4723C10.7248 30.4396 10.5848 30.3414 10.4202 30.2514C10.2555 30.1696 10.0085 29.9978 9.86847 29.8832C9.07801 29.2041 8.60867 28.7704 8.46045 28.5822C8.36988 28.4677 8.1558 28.2222 7.97465 28.0259C7.7935 27.8377 7.55471 27.5186 7.43944 27.3304C7.33239 27.1422 7.19242 26.9622 7.14301 26.9294C7.08537 26.8967 6.9948 26.7494 6.92893 26.6021C6.87129 26.4549 6.75601 26.2667 6.68191 26.1848C6.45959 25.9476 5.48797 23.9184 5.33153 23.3865C5.25742 23.1165 5.14215 22.7319 5.08451 22.5274C4.574 20.7846 4.42579 18.5426 4.70574 16.5134C4.78808 15.867 5.18332 14.2142 5.29859 14.0015C5.33976 13.9197 5.3727 13.8051 5.3727 13.7479C5.3727 13.6415 6.34431 11.6368 6.43489 11.5632C6.45959 11.5386 6.59957 11.3095 6.73131 11.0477C6.87129 10.7859 7.03597 10.5077 7.10184 10.434C7.16771 10.3604 7.34063 10.1313 7.47237 9.92674C7.61235 9.72219 7.83467 9.44399 7.96641 9.3049C8.10639 9.1658 8.43575 8.82214 8.71571 8.52758C8.98743 8.24121 9.37443 7.86482 9.58028 7.70118C9.7779 7.52935 10.0002 7.34116 10.0661 7.2757C10.132 7.21842 10.3131 7.10387 10.4613 7.03023C10.6095 6.95659 10.7495 6.84204 10.7742 6.77658C10.7989 6.71931 10.9224 6.6293 11.0377 6.58021C11.3341 6.46566 11.7047 6.24474 11.9928 6.01564C12.1246 5.91745 12.2646 5.83563 12.3057 5.83563C12.421 5.83563 12.9645 5.58198 13.1127 5.46743C13.1785 5.41015 13.3103 5.34469 13.4009 5.32014C13.4914 5.2956 13.829 5.18105 14.1419 5.0665C15.2535 4.6492 16.2992 4.45283 17.7073 4.38737C18.2589 4.36282 18.7118 4.31373 18.7118 4.27282C18.7118 4.23191 18.8271 4.19918 18.9588 4.19918C19.0988 4.19918 19.2059 4.23191 19.2059 4.27282ZM26.4518 7.05478C26.4518 7.09569 26.32 7.15297 26.1636 7.17751C26.0072 7.21024 25.8754 7.26752 25.8754 7.30843C25.8754 7.35752 25.7766 7.39025 25.6613 7.39025C25.4637 7.39025 25.2414 7.47207 24.6403 7.75027C24.1957 7.95483 23.6522 8.33939 23.611 8.47031C23.5781 8.55213 23.4958 8.61759 23.4134 8.61759C23.3311 8.61759 23.1911 8.71577 23.1088 8.83033C23.0264 8.95306 22.8371 9.19034 22.6888 9.36217C22.4089 9.70582 21.9231 10.6631 21.9231 10.8677C21.9231 10.9413 21.8654 11.0886 21.7913 11.195C21.7255 11.3014 21.6761 11.4896 21.6925 11.6205L21.7172 11.8496L22.1701 11.4241C22.5736 11.0477 22.8782 10.7859 23.117 10.6059C23.4217 10.3768 24.5168 9.91856 24.9367 9.83674C25.4802 9.73855 26.8059 9.7631 26.9129 9.86947C26.9541 9.9022 26.9294 9.96766 26.8717 10.0086C26.7976 10.0495 26.9623 10.0904 27.3246 10.1231C27.9751 10.1804 28.7244 10.3113 28.9632 10.4095C29.0537 10.4504 29.3419 10.5486 29.6054 10.6304C29.8607 10.7122 30.0748 10.8104 30.0748 10.8432C30.0748 10.8759 30.1242 10.9086 30.1818 10.9086C30.3465 10.9086 31.2275 11.7677 31.2275 11.9232C31.2275 11.9969 31.1616 12.0541 31.0628 12.0541C30.9311 12.0541 31.0299 12.185 31.4745 12.6187C31.7874 12.9296 32.0509 13.216 32.0509 13.2569C32.0509 13.306 32.1662 13.4533 32.2979 13.5924C32.4379 13.7397 32.545 13.9033 32.545 13.9688C32.545 14.026 32.6026 14.1242 32.6685 14.1815C32.7343 14.2388 32.792 14.3206 32.792 14.3615C32.792 14.4106 32.8414 14.5579 32.899 14.697C33.1049 15.1797 33.2119 15.5725 33.2613 16.0225C33.286 16.268 33.3437 16.4725 33.3766 16.4725C33.4178 16.4725 33.4507 17.2662 33.4507 18.2317C33.4507 19.1972 33.4178 19.9909 33.3766 19.9909C33.3437 19.9909 33.286 20.2364 33.2531 20.5309C33.2201 20.8255 33.1625 21.1282 33.1296 21.2019C33.0884 21.2755 32.9896 21.5619 32.9073 21.8319C32.8249 22.1019 32.7179 22.3801 32.6685 22.4456C32.6191 22.511 32.5285 22.6747 32.4626 22.8138C32.3967 22.9447 32.3144 23.092 32.2815 23.1411C32.2238 23.2147 32.0592 23.4438 31.3757 24.3848C31.2687 24.532 31.0134 24.843 30.7993 25.0721C30.577 25.3094 30.4041 25.5303 30.4041 25.563C30.4041 25.6039 30.3382 25.6366 30.2559 25.6366C30.1818 25.6366 30.0665 25.7103 30.0089 25.8003C29.9512 25.8903 29.7372 26.0458 29.5148 26.1439C29.3008 26.2421 29.1031 26.3567 29.0784 26.3976C28.9961 26.5121 27.9174 26.5612 27.7692 26.463C27.6787 26.3976 27.6457 26.2176 27.6457 25.7839V25.1866L28.148 24.6957C28.6667 24.1966 28.9879 23.9184 29.8689 23.1983C30.1406 22.9774 30.4782 22.6747 30.61 22.5274C30.7499 22.3801 30.9146 22.1919 30.997 22.1183C31.1781 21.9137 31.7216 21.071 31.7216 20.9809C31.7216 20.94 31.771 20.85 31.8368 20.7846C31.9603 20.67 32.2156 19.9827 32.2156 19.7863C32.2156 19.7209 32.2485 19.6636 32.2897 19.6636C32.3885 19.6636 32.4873 19.0663 32.4873 18.4772C32.4873 17.9126 32.3885 17.2908 32.2979 17.2908C32.265 17.2908 32.2074 17.1926 32.1744 17.0698C32.018 16.448 31.1699 15.6298 30.1736 15.147L29.4572 14.8034H28.3456C27.4893 14.8034 27.1681 14.8279 26.9458 14.9343C26.7894 15.0079 26.5094 15.1143 26.3365 15.1634C25.9495 15.2861 25.4472 15.5643 25.3567 15.7116C25.3237 15.7689 25.2414 15.818 25.1755 15.818C25.1179 15.818 25.052 15.8425 25.0355 15.8752C25.0273 15.9161 24.805 16.0471 24.5415 16.178C24.1216 16.3907 23.9733 16.4153 22.8947 16.4644C21.5855 16.5298 21.3549 16.6035 20.8856 17.1107C20.7291 17.2826 20.6056 17.438 20.6056 17.4626C20.6056 17.4953 20.3998 17.618 20.1528 17.7408C19.9057 17.8553 19.6999 17.9944 19.6999 18.0353C19.6999 18.0763 19.5846 18.109 19.4529 18.109C19.3129 18.109 19.0412 18.1826 18.8518 18.2726C18.5307 18.4281 18.4813 18.4854 18.3989 18.8536C18.3248 19.1645 18.3248 19.2954 18.4072 19.4181C18.4566 19.5081 18.5307 19.5818 18.5636 19.5818C18.6048 19.5818 18.6295 19.6882 18.6295 19.8191C18.6295 19.9827 18.6953 20.0973 18.86 20.1955C18.9835 20.2773 19.1564 20.4246 19.247 20.5146C19.4035 20.6864 20.2598 21.0955 20.3257 21.0382C20.3421 21.0219 20.2269 20.94 20.0787 20.8582C19.7905 20.7028 19.5023 20.3018 19.4776 20.0073C19.4611 19.8273 19.667 19.5 19.7987 19.5C19.8316 19.5 20.0457 19.3854 20.2763 19.2463C20.9515 18.8372 21.7008 18.5999 22.3595 18.5999C22.8206 18.5999 23.0264 18.649 23.4546 18.8536C23.7428 18.9845 23.9816 19.1481 23.9816 19.2136C23.9816 19.279 24.0475 19.3936 24.1298 19.4754C24.4427 19.7782 24.5003 20.2773 24.3521 21.3491C24.278 21.881 24.1874 22.3392 24.1545 22.3637C24.1216 22.3883 24.0392 22.5683 23.9569 22.7729L23.8169 23.1411L24.1545 22.7729C24.3356 22.5683 24.5744 22.2656 24.665 22.0855C24.7638 21.9137 24.8873 21.6928 24.945 21.5946C25.0026 21.4964 25.0849 21.071 25.1343 20.6455C25.2496 19.5818 25.3814 19.0418 25.5625 18.8536C25.6449 18.7636 25.7107 18.6572 25.7107 18.6163C25.7107 18.5754 25.9989 18.2481 26.3612 17.8962C26.9047 17.3562 27.1023 17.2089 27.5963 17.0207C28.4774 16.6853 29.3172 16.7262 29.9924 17.1353C30.0583 17.1762 30.1983 17.2417 30.3053 17.2908C30.4041 17.3317 30.4865 17.4217 30.4865 17.4953C30.4865 17.5608 30.5112 17.618 30.5523 17.618C30.5853 17.618 30.6758 17.7326 30.7582 17.8717C31.0217 18.3463 30.9146 19.4918 30.5194 20.2445C30.3876 20.5064 29.6878 21.251 29.3996 21.4228C28.922 21.7255 28.2633 22.2165 28.2633 22.2819C28.2633 22.3228 28.1809 22.3801 28.0821 22.4128C27.5304 22.5847 25.5625 24.4257 25.2414 25.0721C24.8791 25.8085 24.7226 26.2176 24.7226 26.4549C24.7226 26.7576 25.3155 27.9768 25.5707 28.1895C26.106 28.6559 26.7894 28.8032 27.6293 28.6313C28.3456 28.4841 28.5432 28.4104 29.169 28.0422C29.803 27.674 29.9924 27.6249 29.9924 27.8377C29.9924 28.0749 29.5807 28.5495 28.7985 29.1959C28.5268 29.4168 28.255 29.6541 28.1974 29.7032C28.1398 29.7605 28.0327 29.8096 27.9751 29.8096C27.9174 29.8096 27.8104 29.8587 27.7445 29.9241C27.5963 30.0714 26.0895 30.7914 25.9248 30.7914C25.8589 30.7914 25.7848 30.8242 25.7601 30.8651C25.7354 30.906 25.4719 30.9633 25.1755 30.996C24.8791 31.0206 24.6403 31.086 24.6403 31.1269C24.6403 31.1678 24.2615 31.2006 23.8004 31.2006C23.257 31.2006 22.9853 31.2251 23.0429 31.2824C23.1499 31.3888 24.1133 31.5115 24.5415 31.4624C24.8462 31.4297 24.8873 31.446 24.8873 31.5933C24.8873 31.8633 24.4015 32.027 23.4217 32.0761C22.096 32.1497 21.6349 32.0433 20.1116 31.3397C19.7411 31.1678 19.2882 30.7505 19.2882 30.5787C19.2882 30.5296 19.2141 30.4232 19.1235 30.3414C19.0329 30.2596 18.9588 30.1532 18.9588 30.1041C18.9588 30.055 18.9094 29.9241 18.8518 29.8096C18.5471 29.2286 18.2589 27.9277 18.3248 27.4285C18.4319 26.6103 18.4895 26.3976 18.6706 25.9967C18.7777 25.7594 18.893 25.4321 18.9259 25.2603C18.9506 25.0802 19.0412 24.8675 19.1153 24.7775C19.3294 24.5239 19.634 23.6974 19.5846 23.5256C19.5517 23.4356 19.3952 23.2392 19.2306 23.0674C18.6953 22.5438 18.1848 22.6992 17.592 23.5911C17.4602 23.7956 17.1556 24.0902 16.9168 24.2457C16.6615 24.4093 16.4886 24.5811 16.4886 24.6711C16.4886 24.753 16.4639 24.8184 16.4228 24.8184C16.3239 24.8184 16.1675 25.2439 16.0687 25.7594C15.8793 26.7903 16.291 27.764 16.9168 27.764C17.3614 27.764 17.5179 27.5676 17.5755 26.9049L17.6002 26.6676L17.8308 26.8885C18.1107 27.1749 18.1354 27.6413 17.8802 27.9358C17.7896 28.0422 17.6414 28.214 17.5508 28.3122C17.4191 28.4677 17.312 28.5004 16.8674 28.5004C16.3486 28.5004 16.3322 28.4922 15.8793 28.0749C15.6241 27.8458 15.4182 27.6167 15.4182 27.5676C15.4182 27.5186 15.3441 27.3876 15.2535 27.2731C15.1629 27.1585 15.0888 27.0113 15.0888 26.9458C15.0888 26.8803 15.0394 26.7331 14.9818 26.6185C14.7842 26.2421 14.6113 25.5221 14.5536 24.9002C14.4878 24.0493 14.3478 23.5256 14.1255 23.3129C14.002 23.1983 13.9361 23.0429 13.9361 22.8465C13.9361 22.6174 13.8949 22.5356 13.7302 22.4619C13.5408 22.3801 13.5244 22.3228 13.5244 21.881C13.5244 21.5619 13.4832 21.3655 13.4009 21.3001C13.2197 21.1446 12.8657 20.5146 12.8657 20.3264C12.8657 20.1955 12.8163 20.1545 12.6351 20.1545C12.5034 20.1545 12.3304 20.0809 12.2481 19.9827C12.0834 19.8109 11.9517 19.0172 12.034 18.7063C12.1081 18.4363 12.4704 18.0681 13.0056 17.7244C13.1291 17.6426 13.2938 17.5199 13.3679 17.4544C13.4338 17.3889 13.6561 17.2089 13.862 17.0698C14.6607 16.4807 14.9736 16.1943 15.1135 15.908C15.1959 15.7443 15.3935 15.5234 15.5499 15.4088C15.7146 15.2943 15.9616 15.1061 16.1016 14.9752C16.2334 14.8525 16.3816 14.7543 16.4228 14.7543C16.4639 14.7543 16.5463 14.7052 16.6121 14.6479C16.6698 14.5988 16.8262 14.4761 16.9497 14.3861C17.2791 14.157 18.0531 13.3796 18.0531 13.2815C18.0531 13.2324 18.086 13.1996 18.1354 13.1996C18.1766 13.1996 18.2342 13.1096 18.2672 12.9951C18.2919 12.8805 18.3495 12.7905 18.3907 12.7905C18.4319 12.7905 18.4648 12.7496 18.4648 12.7087C18.4648 12.6596 18.6212 12.3569 18.8024 12.0296C18.9918 11.7023 19.2059 11.3259 19.2717 11.195C19.3458 11.0559 19.4693 10.8759 19.5517 10.7941C19.634 10.7041 19.7164 10.565 19.7493 10.4831C19.774 10.4013 19.8316 10.3359 19.8728 10.3359C19.914 10.3359 19.9469 10.2868 19.9469 10.2295C19.9469 10.1804 20.0622 10.0086 20.1939 9.85311C20.3257 9.70582 20.5398 9.45218 20.6633 9.28853C20.7868 9.13307 20.9844 8.92033 21.0914 8.83033C21.1985 8.73214 21.3796 8.56031 21.4949 8.4294C21.6102 8.30666 21.7337 8.20848 21.7749 8.20848C21.816 8.20848 21.9231 8.14302 22.0137 8.0612C22.236 7.84846 23.1746 7.39025 23.3805 7.39025C23.4793 7.39025 23.5699 7.35752 23.5863 7.30843C23.6028 7.26752 23.8169 7.17751 24.0639 7.11205C24.558 6.98114 26.4518 6.93205 26.4518 7.05478Z" fill="#515595"/>
<path d="M59.605 16.5V27H58.105V22.32H52.075V27H50.575V16.5H52.075V21.015H58.105V16.5H59.605ZM64.5479 16.5H66.0479V27H64.5479V16.5ZM80.7264 27L80.7114 19.35L76.9164 25.725H76.2264L72.4314 19.395V27H70.9914V16.5H72.2214L76.6014 23.88L80.9214 16.5H82.1514L82.1664 27H80.7264ZM94.7376 25.695V27H87.1176V16.5H94.5276V17.805H88.6176V21.03H93.8826V22.305H88.6176V25.695H94.7376ZM105.986 27L103.721 23.775C103.441 23.795 103.221 23.805 103.061 23.805H100.466V27H98.9664V16.5H103.061C104.421 16.5 105.491 16.825 106.271 17.475C107.051 18.125 107.441 19.02 107.441 20.16C107.441 20.97 107.241 21.66 106.841 22.23C106.441 22.8 105.871 23.215 105.131 23.475L107.621 27H105.986ZM103.016 22.53C103.966 22.53 104.691 22.325 105.191 21.915C105.691 21.505 105.941 20.92 105.941 20.16C105.941 19.4 105.691 18.82 105.191 18.42C104.691 18.01 103.966 17.805 103.016 17.805H100.466V22.53H103.016ZM118.355 24.375H112.775L111.62 27H110.075L114.83 16.5H116.315L121.085 27H119.51L118.355 24.375ZM117.83 23.175L115.565 18.03L113.3 23.175H117.83ZM133.339 27.12C132.549 27.12 131.784 27 131.044 26.76C130.314 26.51 129.739 26.19 129.319 25.8L129.874 24.63C130.274 24.99 130.784 25.285 131.404 25.515C132.034 25.735 132.679 25.845 133.339 25.845C134.209 25.845 134.859 25.7 135.289 25.41C135.719 25.11 135.934 24.715 135.934 24.225C135.934 23.865 135.814 23.575 135.574 23.355C135.344 23.125 135.054 22.95 134.704 22.83C134.364 22.71 133.879 22.575 133.249 22.425C132.459 22.235 131.819 22.045 131.329 21.855C130.849 21.665 130.434 21.375 130.084 20.985C129.744 20.585 129.574 20.05 129.574 19.38C129.574 18.82 129.719 18.315 130.009 17.865C130.309 17.415 130.759 17.055 131.359 16.785C131.959 16.515 132.704 16.38 133.594 16.38C134.214 16.38 134.824 16.46 135.424 16.62C136.024 16.78 136.539 17.01 136.969 17.31L136.474 18.51C136.034 18.23 135.564 18.02 135.064 17.88C134.564 17.73 134.074 17.655 133.594 17.655C132.744 17.655 132.104 17.81 131.674 18.12C131.254 18.43 131.044 18.83 131.044 19.32C131.044 19.68 131.164 19.975 131.404 20.205C131.644 20.425 131.939 20.6 132.289 20.73C132.649 20.85 133.134 20.98 133.744 21.12C134.534 21.31 135.169 21.5 135.649 21.69C136.129 21.88 136.539 22.17 136.879 22.56C137.229 22.95 137.404 23.475 137.404 24.135C137.404 24.685 137.254 25.19 136.954 25.65C136.654 26.1 136.199 26.46 135.589 26.73C134.979 26.99 134.229 27.12 133.339 27.12ZM149.016 25.695V27H141.396V16.5H148.806V17.805H142.896V21.03H148.161V22.305H142.896V25.695H149.016ZM159.935 24.375H154.355L153.2 27H151.655L156.41 16.5H157.895L162.665 27H161.09L159.935 24.375ZM159.41 23.175L157.145 18.03L154.88 23.175H159.41ZM173.051 27L170.786 23.775C170.506 23.795 170.286 23.805 170.126 23.805H167.531V27H166.031V16.5H170.126C171.486 16.5 172.556 16.825 173.336 17.475C174.116 18.125 174.506 19.02 174.506 20.16C174.506 20.97 174.306 21.66 173.906 22.23C173.506 22.8 172.936 23.215 172.196 23.475L174.686 27H173.051ZM170.081 22.53C171.031 22.53 171.756 22.325 172.256 21.915C172.756 21.505 173.006 20.92 173.006 20.16C173.006 19.4 172.756 18.82 172.256 18.42C171.756 18.01 171.031 17.805 170.081 17.805H167.531V22.53H170.081ZM183.424 27.12C182.374 27.12 181.424 26.89 180.574 26.43C179.734 25.96 179.074 25.32 178.594 24.51C178.114 23.69 177.874 22.77 177.874 21.75C177.874 20.73 178.114 19.815 178.594 19.005C179.074 18.185 179.739 17.545 180.589 17.085C181.439 16.615 182.389 16.38 183.439 16.38C184.259 16.38 185.009 16.52 185.689 16.8C186.369 17.07 186.949 17.475 187.429 18.015L186.454 18.96C185.664 18.13 184.679 17.715 183.499 17.715C182.719 17.715 182.014 17.89 181.384 18.24C180.754 18.59 180.259 19.075 179.899 19.695C179.549 20.305 179.374 20.99 179.374 21.75C179.374 22.51 179.549 23.2 179.899 23.82C180.259 24.43 180.754 24.91 181.384 25.26C182.014 25.61 182.719 25.785 183.499 25.785C184.669 25.785 185.654 25.365 186.454 24.525L187.429 25.47C186.949 26.01 186.364 26.42 185.674 26.7C184.994 26.98 184.244 27.12 183.424 27.12ZM200.399 16.5V27H198.899V22.32H192.869V27H191.369V16.5H192.869V21.015H198.899V16.5H200.399Z" fill="#515595"/>
</svg>
