<svg width="31" height="22" viewBox="0 0 31 22" fill="none" xmlns="http://www.w3.org/2000/svg">
<path d="M20.5488 10.8156L30.9997 17.4224V3.92969L20.5488 10.8156Z" fill="#515595"/>
<path d="M0 3.92969V17.4224L10.4509 10.8156L0 3.92969Z" fill="#515595"/>
<path d="M29.063 0H1.93797C0.971156 0 0.203906 0.72075 0.0585938 1.64881L15.5005 11.8226L30.9424 1.64881C30.797 0.72075 30.0298 0 29.063 0Z" fill="#515595"/>
<path d="M18.7749 11.9853L16.0333 13.7911C15.8706 13.8976 15.6865 13.95 15.5005 13.95C15.3145 13.95 15.1304 13.8976 14.9677 13.7911L12.2261 11.9834L0.0625 19.6772C0.211688 20.5975 0.975063 21.3125 1.938 21.3125H29.063C30.0259 21.3125 30.7893 20.5975 30.9385 19.6772L18.7749 11.9853Z" fill="#515595"/>
</svg>
