<svg width="20" height="22" viewBox="0 0 20 22" fill="none" xmlns="http://www.w3.org/2000/svg">
<path d="M10 0C15.5232 0 20 4.30146 20 9.60833C20 13.2387 17.9056 16.3941 14.816 18.0291L14.9336 22L10.2152 19.2059C10.144 19.2074 10.0728 19.2167 10 19.2167C4.4768 19.2167 0 14.9152 0 9.60833C0 4.30146 4.4768 0 10 0ZM8.7264 15.2073H11.2888V7.28235H8.7264V15.2073ZM10.0248 6.31152C10.8352 6.31152 11.3744 5.75962 11.3568 5.07858C11.3736 4.36602 10.8352 3.83026 10.008 3.83026C9.1816 3.83026 8.6568 4.36602 8.64 5.07858C8.6408 5.75962 9.1832 6.31152 10.0248 6.31152Z" fill="#515595"/>
</svg>
