<svg width="17" height="24" viewBox="0 0 17 24" fill="none" xmlns="http://www.w3.org/2000/svg">
<path d="M7.43417 0.0347786C5.59561 0.289509 3.67045 1.85919 2.84444 3.78687C2.40478 4.81956 2.39146 4.89529 2.3315 7.54585C2.30486 8.88835 2.27821 9.99677 2.27821 10.0036C2.27155 10.0174 2.11834 10.0243 1.93848 10.0243C1.72531 10.0243 1.49882 10.0794 1.32563 10.1689C0.905956 10.3892 0.413009 10.9055 0.193182 11.353L0 11.7592L0.0199843 17.1017C0.0399687 22.1894 0.0466301 22.4647 0.166536 22.6919C0.393025 23.1257 0.672806 23.4355 1.09248 23.7246L1.50549 24L8.53331 23.9862C15.2347 23.9656 15.5745 23.9587 15.7876 23.8348C16.134 23.642 16.627 23.0981 16.8268 22.6988L17 22.3339L16.98 16.9915L16.96 11.6422L16.8068 11.3186C16.5803 10.8505 15.9408 10.2584 15.5145 10.1276C15.328 10.0725 15.0882 10.0243 14.9882 10.0243H14.8084L14.7817 7.76616C14.7484 5.63194 14.7418 5.48048 14.5819 4.86087C14.2688 3.64918 13.8358 2.85746 13.0031 1.94869C12.2371 1.11566 11.1446 0.434084 10.0987 0.131163C9.70572 0.0141239 8.01371 -0.0409527 7.43417 0.0347786ZM9.3127 1.15008C10.3918 1.30154 11.3578 1.85231 12.2171 2.79549C12.77 3.39445 13.0831 3.89014 13.3096 4.50287C13.6027 5.30837 13.656 5.83848 13.6626 7.93828V9.88661H13.0964H12.5302V8.17924C12.5302 6.25844 12.4636 5.52867 12.2304 4.88841C11.844 3.83507 10.8781 2.86434 9.83229 2.4788C9.33934 2.2998 8.06701 2.26538 7.56074 2.41684C6.28174 2.80238 5.17594 3.88326 4.8029 5.12248C4.63636 5.65948 4.5431 7.00886 4.53644 8.83327V10.0243H3.96356H3.38401L3.42398 7.76616C3.45063 5.7421 3.47061 5.46671 3.59718 5.01233C4.02351 3.50461 4.98942 2.28604 6.30172 1.61135C7.23433 1.12943 8.17359 0.98485 9.3127 1.15008ZM9.23276 3.51149C10.0388 3.7318 10.7183 4.30322 11.0913 5.07429C11.3578 5.63194 11.3777 5.7834 11.431 8.28251L11.4643 10.0243H8.56661H5.66889V8.4202C5.66889 6.37548 5.7355 5.7421 5.9953 5.17068C6.57484 3.88326 7.98041 3.16038 9.23276 3.51149ZM15.3879 11.3393C15.8875 11.711 15.8676 11.415 15.8476 17.1567L15.8276 22.2926L15.5078 22.5955L15.1814 22.8985H8.5H1.81857L1.49216 22.5955L1.17241 22.2926L1.15243 17.081L1.13911 11.8625L1.30564 11.6353C1.3989 11.5045 1.54545 11.3668 1.62539 11.3186C1.82524 11.1947 3.62382 11.1603 9.90556 11.1396L15.1082 11.1258L15.3879 11.3393Z" fill="white"/>
<path d="M8.38898 13.0606C7.26045 13.2702 6.28097 14.2508 6.04675 15.4005C5.8764 16.2052 6.1816 17.1588 6.7991 17.7877L7.13269 18.1258L7.18947 18.8833C7.28174 20.0803 7.45919 20.4522 8.11217 20.7971C8.44576 20.9729 8.56642 21 9.02777 21C9.61688 21 9.8582 20.9053 10.2273 20.5537C10.6531 20.1479 10.7596 19.8639 10.788 19.0118L10.8164 18.234L11.1784 17.8283C12.2856 16.5569 12.2714 15.0285 11.15 13.8991C10.7241 13.4663 10.2415 13.2093 9.61688 13.0876C9.07746 12.9794 8.85743 12.9727 8.38898 13.0606ZM9.8511 14.3522C10.5041 14.6633 10.8519 15.299 10.7809 16.0497C10.7383 16.5366 10.5041 16.9221 10.0285 17.3008L9.66656 17.5916V18.2138C9.66656 19.5054 9.50332 19.8842 8.95679 19.8842C8.50964 19.8842 8.45286 19.7624 8.39608 18.633L8.3393 17.6457L7.87085 17.2061C7.31723 16.6921 7.13269 16.2729 7.21077 15.6642C7.26755 15.2449 7.59404 14.6769 7.88505 14.4807C8.44576 14.0953 9.21231 14.0479 9.8511 14.3522Z" fill="white"/>
</svg>
