<svg width="28" height="38" viewBox="0 0 28 38" fill="none" xmlns="http://www.w3.org/2000/svg">
<path d="M12.5207 0.0813675C8.06016 0.593475 4.31211 3.74035 3.08008 7.99309C2.6793 9.38098 2.65703 9.64074 2.60508 13.7673L2.56055 17.6267L2.04102 17.8197C1.75898 17.9236 1.3582 18.072 1.15781 18.1462C0.705078 18.3095 0.311719 18.6509 0.141016 19.0368C0.00742187 19.3189 0 19.7419 0 26.904C0 34.0884 0.00742187 34.4892 0.141016 34.7712C0.296875 35.1126 0.638281 35.4318 1.03164 35.595C1.62539 35.8474 3.70352 36.5302 4.60156 36.7751C11.3555 38.6009 18.4062 38.3708 24.9895 36.1071C25.6352 35.8919 26.2809 35.6544 26.4293 35.595C26.8227 35.4318 27.1641 35.1126 27.3199 34.7712C27.4535 34.4892 27.4609 34.0884 27.4609 26.904C27.4609 19.7419 27.4535 19.3189 27.3199 19.0368C27.1492 18.6509 26.7559 18.3095 26.3031 18.1462C26.1027 18.072 25.7094 17.9236 25.4199 17.8197L24.9004 17.6267L24.8559 13.7673C24.8039 9.64074 24.7816 9.38098 24.3809 7.99309C23.3863 4.55676 20.618 1.69933 17.2039 0.563789C15.7418 0.0887871 14.0125 -0.0967598 12.5207 0.0813675ZM14.5543 3.89621C16.0758 4.01496 17.6566 4.77199 18.8367 5.94465C19.8684 6.96887 20.566 8.25285 20.8629 9.68527C20.9891 10.2716 21.0039 10.7169 21.0039 13.4482C21.0039 15.8825 20.9816 16.5505 20.9148 16.5505C20.8629 16.5505 20.4695 16.4837 20.0391 16.4021C18.6809 16.1497 17.0406 15.9642 15.393 15.8677C12.9215 15.7341 9.84141 15.9419 7.42188 16.4021C6.99141 16.4837 6.59805 16.5505 6.55352 16.5505C6.4793 16.5505 6.45703 15.8825 6.45703 13.4482C6.45703 10.7169 6.47187 10.2716 6.59805 9.68527C6.79102 8.7427 7.13242 7.92629 7.63711 7.15441C8.88398 5.26183 10.8359 4.07433 13.0254 3.87394C13.3965 3.83683 13.7602 3.81457 13.8418 3.82941C13.9234 3.84426 14.2426 3.86652 14.5543 3.89621ZM14.2574 21.0779C15.5414 21.3154 16.5063 22.3173 16.7066 23.631C16.8551 24.5661 16.4988 25.5236 15.7566 26.2064C15.534 26.4068 15.3187 26.57 15.2816 26.57C15.2445 26.57 15.2148 27.6759 15.2148 29.2568C15.2148 31.7208 15.2 31.9732 15.0738 32.2478C14.9105 32.604 14.673 32.8341 14.3094 32.99C13.5672 33.2943 12.7211 32.9677 12.3871 32.2478C12.2609 31.9806 12.2461 31.7208 12.2461 29.3161V26.6814L11.7785 26.2657C10.7246 25.3157 10.4352 24.0095 11.0141 22.7478C11.4594 21.7755 12.5504 21.0556 13.6637 21.0111C13.775 21.0036 14.0422 21.0407 14.2574 21.0779Z" fill="#494D86"/>
</svg>
