<svg width="39" height="39" viewBox="0 0 39 39" fill="none" xmlns="http://www.w3.org/2000/svg">
<path d="M18.319 0.129396C16.5214 0.510256 14.8913 1.86612 14.2134 3.54951C12.8727 6.84776 14.8761 10.5802 18.3723 11.3038C20.2462 11.6923 22.1733 11.1058 23.5292 9.72705C24.5803 8.66065 25.0907 7.52569 25.1897 6.01748C25.3954 2.78018 22.7141 -0.0305647 19.4464 0.00752122C19.1188 0.00752122 18.6161 0.0608415 18.319 0.129396Z" fill="#494D86"/>
<path d="M5.72777 4.875C4.8975 5.0959 4.30336 5.43867 3.6559 6.09375C2.9932 6.74883 2.65805 7.33535 2.43715 8.19609C2.24672 8.94258 2.24672 9.64336 2.43715 10.3898C2.65805 11.2506 2.9932 11.8371 3.6559 12.4922C4.30336 13.1473 4.8975 13.49 5.72777 13.7109C6.03246 13.7871 6.2686 13.8557 6.24574 13.8633C6.22289 13.8633 5.89535 13.9318 5.52211 14.008C2.93988 14.5412 0.928947 16.4303 0.212931 19.0049C0.0529703 19.5838 0.0453531 19.7818 0.0148844 23.1334C-0.00796718 26.5687 -0.00796717 26.6525 0.144377 26.9572C0.380509 27.4143 0.654728 27.5285 1.59926 27.5742L2.39906 27.6123L2.90942 32.8301C3.48832 38.6344 3.47309 38.5582 4.02914 38.8477C4.3186 38.9924 4.47094 39 6.85512 39C9.2393 39 9.39164 38.9924 9.6811 38.8477C10.2295 38.5658 10.2295 38.543 10.7018 33.7822C10.9532 31.2762 11.0979 29.509 11.0522 29.4937C11.0141 29.4785 10.8237 29.3643 10.6332 29.2348C9.98578 28.8082 9.46781 28.0541 9.24692 27.2314C9.09457 26.6602 9.09457 19.2182 9.25453 18.2051C9.39164 17.2605 9.68871 16.2627 10.0543 15.4781L10.3514 14.8535L10.1077 14.724C9.39926 14.3432 8.19574 13.9395 7.7768 13.9395C7.37309 13.9395 7.47211 13.8328 7.9977 13.7033C8.81274 13.4977 9.40688 13.1473 10.0543 12.4922C10.717 11.8371 11.0522 11.2506 11.2731 10.3898C11.5473 9.31582 11.4102 8.15039 10.877 7.1373C10.5571 6.52031 9.62778 5.59101 9.01078 5.27109C8.00531 4.7455 6.79418 4.60078 5.72777 4.875Z" fill="#494D86"/>
<path d="M31.0174 4.875C30.1872 5.0959 29.593 5.43867 28.9456 6.09375C28.2829 6.74883 27.9477 7.33535 27.7268 8.19609C27.5364 8.94258 27.5364 9.64336 27.7268 10.3898C27.9477 11.2506 28.2829 11.8371 28.9456 12.4922C29.593 13.1473 30.1872 13.4977 31.0022 13.7033C31.5278 13.8328 31.6268 13.9395 31.2231 13.9395C30.8879 13.9395 29.7377 14.3051 29.1741 14.5869L28.6485 14.8535L28.9456 15.4781C29.3112 16.2627 29.6083 17.2605 29.7454 18.2051C29.9053 19.2182 29.9053 26.6602 29.753 27.2314C29.5321 28.0541 29.0141 28.8082 28.3667 29.2348C28.1762 29.3643 27.9858 29.4785 27.9477 29.4937C27.902 29.509 28.0467 31.2762 28.2981 33.7822C28.7704 38.543 28.7704 38.5658 29.3188 38.8477C29.6083 38.9924 29.7606 39 32.1448 39C34.529 39 34.6813 38.9924 34.9708 38.8477C35.5268 38.5582 35.5116 38.6344 36.0905 32.8301L36.6008 27.6123L37.4006 27.5742C38.3452 27.5285 38.6194 27.4143 38.8555 26.9572C39.0079 26.6525 39.0079 26.5687 38.985 23.1334C38.9545 19.7818 38.9469 19.5838 38.787 19.0049C38.2233 16.9863 36.8979 15.3943 35.0165 14.5031C34.4528 14.2365 33.4168 13.9395 33.0588 13.9395C32.6627 13.9395 32.7618 13.8328 33.2874 13.7033C34.1024 13.4977 34.6965 13.1473 35.344 12.4922C36.0067 11.8371 36.3418 11.2506 36.5627 10.3898C36.837 9.31582 36.6999 8.15039 36.1667 7.1373C35.8467 6.52031 34.9174 5.59101 34.3004 5.27109C33.295 4.7455 32.0838 4.60078 31.0174 4.875Z" fill="#494D86"/>
<path d="M17.3062 11.7762C15.1201 12.416 13.3377 13.9014 12.3475 15.8895C11.9742 16.6436 11.6924 17.5424 11.5857 18.3117C11.5324 18.6697 11.502 20.3912 11.502 22.7068C11.502 26.3707 11.5096 26.523 11.6543 26.8125C11.9285 27.3533 12.1799 27.4219 13.81 27.4219H15.2039L15.6457 32.7691C16.1408 38.7182 16.1104 38.5582 16.6816 38.8477C16.9635 38.9924 17.1234 39 19.5 39C21.8766 39 22.0365 38.9924 22.3184 38.8477C22.8896 38.5582 22.8592 38.7105 23.3543 32.7691L23.7961 27.4219H25.19C26.8201 27.4219 27.0715 27.3533 27.3457 26.8125C27.4904 26.523 27.498 26.3707 27.498 22.7068C27.498 18.6697 27.4676 18.1365 27.14 17.1006C26.3326 14.5031 24.3141 12.5379 21.6709 11.7686C21.3053 11.6619 20.9244 11.5781 20.8254 11.5781H20.6426V15.6152C20.6426 19.5152 20.635 19.6676 20.4902 19.957C20.315 20.2998 19.8809 20.5664 19.4924 20.5664C19.142 20.5664 18.6697 20.2693 18.5021 19.9418C18.365 19.6752 18.3574 19.4314 18.3574 15.6152V11.5781L18.1518 11.5857C18.0299 11.5857 17.6566 11.6695 17.3062 11.7762Z" fill="#494D86"/>
</svg>
