<svg width="54" height="42" viewBox="0 0 54 42" fill="none" xmlns="http://www.w3.org/2000/svg">
<path d="M2.53125 0.10664C1.58203 0.401952 0.748828 1.11914 0.326953 2.01562L0.0527344 2.5957V21V39.4043L0.326953 39.9844C0.664453 40.6805 1.23398 41.2816 1.95117 41.6508L2.47852 41.9355H27H51.5215L52.0699 41.6508C52.7871 41.2711 53.3355 40.7016 53.673 39.9844L53.9473 39.4043V21V2.5957L53.673 2.01562C53.3355 1.29844 52.7871 0.728906 52.0699 0.349218L51.5215 0.0644524L27.1582 0.0433586C13.7637 0.0328118 2.67891 0.0644524 2.53125 0.10664ZM49.6758 21V37.6641H47.9672H46.248L45.9527 37.2949C45.5836 36.8309 44.0859 36.0926 42.0293 35.3543C41.2172 35.0695 39.6773 34.5105 38.6016 34.1309C35.0789 32.8652 33.2859 31.8105 32.4105 30.5027C31.8727 29.7117 31.6512 29.0367 31.5668 27.8977C31.493 26.8324 31.609 26.4527 32.2945 25.609C32.9801 24.7547 33.2965 24.1219 33.5602 23.0672C33.8133 22.023 33.9504 21.8016 34.4777 21.5379C34.9734 21.2848 35.1844 20.9684 35.3848 20.1879C35.6801 19.0594 35.5746 18.0574 35.1 17.5512L34.8785 17.3191L35.1211 15.6211C35.4164 13.5328 35.3742 12.4254 34.984 11.3812C34.1297 9.13477 32.3156 7.66875 29.7527 7.13086C28.118 6.79336 26.0719 6.83555 24.5215 7.23633C22.0008 7.89023 20.1656 9.67266 19.5539 12.0457C19.343 12.8578 19.4063 14.5137 19.7016 16.2328C19.8703 17.182 19.8703 17.3297 19.7332 17.4457C19.227 17.8676 19.0582 19.0699 19.3535 20.1879C19.5539 20.9684 19.7648 21.2848 20.2605 21.5379C20.7879 21.8016 20.925 22.023 21.1781 23.0672C21.4418 24.1008 21.7688 24.7863 22.3594 25.4824C23.2137 26.4949 23.3719 27.2859 23.0555 28.8152C22.7602 30.2074 22.1063 31.1039 20.7352 32.0215C19.5539 32.802 18.4992 33.2766 15.5355 34.3418C10.2199 36.2613 9.54492 36.5566 8.83828 37.2633L8.4375 37.6641H6.38086H4.32422V21V4.33594H27H49.6758V21Z" fill="#494D86"/>
</svg>
