<svg width="42" height="42" viewBox="0 0 42 42" fill="none" xmlns="http://www.w3.org/2000/svg">
<path d="M7.23809 0.112307C6.2209 0.333791 6.03223 0.481447 3.38262 3.13926C1.06934 5.44434 0.888867 5.64942 0.618164 6.22363C0.166992 7.1752 0.0603515 7.68379 0.0111327 9.0291C-0.038086 10.3826 0.0685546 11.2768 0.478711 12.8354C2.94785 22.2115 13.9893 34.549 24.5549 39.7334C27.6885 41.2674 30.0592 41.94 32.3889 41.9482C33.8162 41.9482 34.5381 41.8006 35.5307 41.3166C36.1705 41.0049 36.3346 40.849 38.6396 38.5521C41.2154 35.9764 41.3631 35.7877 41.6912 34.6967C41.8635 34.1225 41.8635 33.0396 41.6912 32.4654C41.3959 31.4811 41.2728 31.3334 38.0162 28.0604C36.3018 26.3295 34.6693 24.7545 34.3986 24.5576C32.7744 23.401 30.6826 23.565 29.3209 24.9514C28.9107 25.3697 28.7467 25.6158 28.4678 26.2803C28.2709 26.7232 28.0166 27.2236 27.8936 27.3877C27.1061 28.4541 25.5967 29.1268 24.3088 28.9955C22.3893 28.7904 19.5264 27.0514 17.0982 24.6232C14.1615 21.6865 12.4307 18.3068 12.849 16.3381C13.0459 15.4193 13.6939 14.4596 14.4568 13.951C14.6373 13.8197 15.0311 13.6146 15.3264 13.4916C16.1795 13.1307 16.3846 13.0076 16.7865 12.6631C18.1482 11.4736 18.4436 9.24238 17.451 7.65918C17.1639 7.1916 11.5037 1.47403 10.8146 0.940822C10.265 0.522463 9.54316 0.194338 8.89512 0.0794941C8.27988 -0.0353497 7.86973 -0.0271465 7.23809 0.112307Z" fill="#494D86"/>
</svg>
