<svg width="311" height="311" viewBox="0 0 311 311" fill="none" xmlns="http://www.w3.org/2000/svg">
<path d="M141.304 0.376845C111.284 3.29378 83.5732 14.3538 59.2654 33.0708C47.4154 42.1862 32.0407 59.3232 23.1684 73.3002C19.3399 79.3164 11.8652 94.6303 9.19138 101.923C6.21368 110.066 2.9929 122.584 1.41289 132.247C-0.470963 144.097 -0.470963 166.581 1.41289 178.431C4.14752 195.204 8.46215 208.695 15.8153 223.705C23.8368 240.052 32.1622 251.659 45.5315 265.089C58.9616 278.458 70.5685 286.783 86.9155 294.805C101.926 302.158 115.416 306.473 132.189 309.207C144.039 311.091 166.524 311.091 178.374 309.207C195.146 306.473 208.637 302.158 223.647 294.805C239.994 286.783 251.601 278.458 265.031 265.089C278.4 251.659 286.726 240.052 294.747 223.705C300.095 212.827 302.769 205.717 305.686 194.778C309.514 180.194 310.426 172.233 310.426 155.339C310.426 138.445 309.514 130.484 305.686 115.9C302.769 104.961 300.095 97.8511 294.747 86.9733C286.726 70.6263 278.4 59.0194 265.031 45.5893C251.601 32.22 239.994 23.8946 223.647 15.8731C208.698 8.51995 194.842 4.14455 178.677 1.59223C169.744 0.194537 149.812 -0.473927 141.304 0.376845ZM174.727 14.1107C195.328 17.0884 214.957 24.32 232.458 35.5016C247.833 45.2855 265.335 62.7871 275.119 78.1618C283.869 91.8956 291.04 108.972 294.382 124.164C296.874 135.407 297.603 142.517 297.603 155.339C297.603 172.051 295.841 183.718 291.04 198.668C283.748 221.213 272.809 238.958 255.855 255.912C238.9 272.867 221.155 283.806 198.61 291.098C183.661 295.899 171.993 297.661 155.281 297.661C138.57 297.661 126.902 295.899 111.953 291.098C89.4071 283.806 71.6624 272.867 54.7077 255.912C31.9799 233.245 18.9145 207.115 13.9922 174.481C12.5945 165.305 12.5945 145.373 13.9922 136.197C17.2737 114.623 24.2622 95.6634 35.4438 78.1618C45.2277 62.7871 62.7293 45.2855 78.1039 35.5016C106.969 17.0884 141.608 9.43149 174.727 14.1107Z" fill="#3AC6EA"/>
<path d="M120.216 91.1663C116.206 92.9893 116.388 89.4647 116.388 155.46C116.388 213.313 116.449 215.257 117.543 217.081C119.244 219.937 122.283 220.788 125.443 219.329C130.183 217.202 218.359 160.018 219.149 158.56C220.121 156.797 220.121 153.88 219.149 152.118C218.541 151.024 145.132 103.138 128.238 92.807C124.349 90.4978 122.647 90.1332 120.216 91.1663ZM165.854 132.246C185.422 144.765 201.404 155.157 201.404 155.339C201.404 155.643 130.79 201.037 129.757 201.402C129.393 201.524 129.15 184.387 129.15 155.339C129.15 126.291 129.393 109.154 129.757 109.276C130.061 109.336 146.287 119.728 165.854 132.246Z" fill="#3AC6EA"/>
</svg>
