<svg width="11" height="15" viewBox="0 0 11 15" fill="none" xmlns="http://www.w3.org/2000/svg">
<path d="M1.1088 3.77433V7.03233L0.5616 7.04313L0.0108 7.05393L0.0072 7.78113L0 8.51193H0.5544H1.1088V8.83593V9.15633L0.5616 9.16713L0.0108 9.17793V9.91593V10.6539L0.5616 10.6647L1.1088 10.6755V12.3999V14.1279H1.9188H2.7288V12.3999V10.6719H5.4468H8.1648V9.91593V9.15993H5.4468H2.7288V8.83593V8.51553L5.0076 8.50473C7.218 8.49393 7.2936 8.49033 7.6788 8.41113C8.352 8.27073 9.0684 7.98273 9.4284 7.71273C9.7632 7.46073 10.1808 7.01073 10.314 6.75873C10.44 6.52113 10.4688 6.45993 10.5516 6.26193C10.602 6.14313 10.6884 5.87673 10.746 5.66793C10.8396 5.30433 10.8432 5.25753 10.8468 4.38993V3.48993L10.728 3.07953C10.6596 2.85273 10.5732 2.60793 10.5372 2.53953C10.5012 2.46753 10.4688 2.39913 10.4688 2.38113C10.4688 2.33073 10.278 2.05353 10.0944 1.83393C9.8892 1.59633 9.7308 1.44513 9.5364 1.31553C9.4644 1.26513 9.3996 1.21833 9.3888 1.20753C9.3672 1.17873 9.0288 1.01313 8.7948 0.912329C8.532 0.800729 8.0208 0.667529 7.6068 0.599129C7.3044 0.552329 6.7464 0.541529 4.1796 0.530729L1.1088 0.516329V3.77433ZM7.4088 2.15073C8.3664 2.42073 8.856 2.83113 9.1044 3.58353C9.2232 3.94713 9.2412 4.68873 9.1368 5.11353C8.928 5.97393 8.4312 6.51753 7.596 6.80193C6.984 7.01073 6.6708 7.03593 4.5864 7.03593H2.7288V4.53033V2.02833L4.8996 2.04273L7.0668 2.05353L7.4088 2.15073Z" fill="#515595"/>
</svg>
