<svg width="33" height="28" viewBox="0 0 33 28" fill="none" xmlns="http://www.w3.org/2000/svg">
<path d="M30.7796 0.153301C28.5851 0.975203 1.50826 11.5679 1.10808 11.7651C-0.215103 12.4029 -0.370012 13.2445 0.733716 13.8166C0.843443 13.8758 2.67008 14.4675 4.80654 15.1448L8.68572 16.3743L17.4897 10.7591C22.3371 7.67534 26.397 5.11101 26.5132 5.07156C26.8165 4.96635 27.0747 4.97293 27.1909 5.09786C27.2748 5.18334 27.2813 5.22279 27.2103 5.34772C27.1715 5.43319 23.9507 8.41176 20.0651 11.9624C16.1794 15.5196 12.9844 18.4521 12.9715 18.485C12.9586 18.5179 12.8295 20.2932 12.6811 22.4301L12.41 26.3095L12.7069 26.27C12.8683 26.2503 13.12 26.1648 13.2684 26.0794C13.4234 26.0004 14.4303 25.0668 15.5211 24.0082C16.6054 22.9496 17.5349 22.0619 17.5801 22.0487C17.6253 22.029 19.3551 23.2783 21.427 24.8235C23.4925 26.3687 25.3449 27.7034 25.545 27.7955C26.0678 28.0453 26.6487 28.0651 27.0295 27.8612C27.3716 27.6771 27.7008 27.2169 27.8428 26.7369C27.8945 26.5528 29.0821 20.9836 30.4698 14.3623C32.787 3.34228 33 2.27709 33 1.70505C33 1.16588 32.9806 1.03438 32.8386 0.751646C32.7418 0.547815 32.5675 0.343987 32.3997 0.225632C32.0189 -0.043951 31.3864 -0.0768318 30.7796 0.153301Z" fill="#515595"/>
</svg>
