<svg width="24" height="24" viewBox="0 0 24 24" fill="none" xmlns="http://www.w3.org/2000/svg">
<path d="M21.7402 1.51882C20.7512 1.87039 19.8184 2.75632 17.0152 6.02351C15.3699 7.9407 12.0652 11.5501 9.89023 13.8048C8.71366 15.0282 8.23085 15.6188 7.70585 16.486L7.6121 16.636L5.98085 14.9766C3.84335 12.7923 3.17304 12.2157 2.27304 11.7798C0.782413 11.0579 -0.0800871 11.5594 0.0183504 13.0923C0.0792879 14.0204 0.332413 14.8735 0.876163 15.9751C1.60741 17.4563 2.91523 19.2048 4.54648 20.8782C5.65741 22.0173 6.4871 22.5001 7.45741 22.5798C7.89804 22.6126 8.19804 22.5469 8.69491 22.3079C9.84804 21.7548 11.3199 20.2173 13.8746 16.8985C14.9199 15.5391 15.3418 15.0188 16.7809 13.2657C18.6934 10.9407 19.6824 9.73132 20.4137 8.81257C20.7699 8.36257 21.3184 7.68757 21.6324 7.31257C23.1324 5.51726 23.6902 4.63132 23.934 3.65632C24.1168 2.90632 23.8871 2.23601 23.273 1.77195C22.7855 1.40164 22.298 1.32195 21.7402 1.51882ZM1.65429 12.6891C1.79023 12.7641 1.79491 12.7735 1.70116 12.7876C1.64491 12.7969 1.50898 12.7594 1.39648 12.7079L1.19491 12.6188L1.3496 12.6141C1.43398 12.6094 1.56991 12.6469 1.65429 12.6891Z" fill="#515595"/>
</svg>
