<svg width="16" height="24" viewBox="0 0 16 24" fill="none" xmlns="http://www.w3.org/2000/svg">
<path d="M10.978 0.0488319C9.23376 0.391378 7.96109 1.62079 7.49871 3.41798C7.43462 3.66668 7.42089 4.05615 7.40715 5.85804L7.38884 8.00247L4.22089 8.01654L1.05293 8.03062L0.85608 8.13855C0.549356 8.30747 0.265522 8.5984 0.128183 8.89402L0 9.1568V12.7934C0 16.4207 0 16.43 0.100715 16.6506C0.233476 16.9462 0.5402 17.2794 0.824034 17.4295L1.05293 17.5562L2.65522 17.5797L4.25751 17.6031L4.27125 17.819C4.28498 18.0255 4.2804 18.0348 4.05608 18.1803C3.68984 18.4243 3.24578 18.9546 3.03977 19.3909C2.20658 21.16 3.08097 23.2575 4.89843 23.8487C5.85064 24.1584 6.85322 23.9895 7.69557 23.3701C8.91331 22.4832 9.30701 20.6907 8.59743 19.3018C8.40515 18.9217 7.90615 18.3586 7.59485 18.1568C7.398 18.0301 7.38884 18.0161 7.40258 17.8143L7.41631 17.6031L9.0186 17.5797C10.4423 17.5609 10.6392 17.5468 10.7994 17.4718C11.0695 17.3404 11.4449 16.9509 11.5639 16.674L11.6738 16.43V12.7934C11.6738 9.16618 11.6738 9.1568 11.5731 8.93626C11.4403 8.64063 11.129 8.30747 10.8498 8.15732C10.6712 8.06347 10.5293 8.03062 10.186 8.01185L9.75107 7.9837L9.73734 6.22404C9.73276 5.14948 9.7465 4.3377 9.77396 4.14061C9.93877 3.02851 10.9597 2.23549 11.9989 2.41381C12.7222 2.53581 13.3036 3.0379 13.5554 3.76053C13.624 3.9623 13.6423 4.21569 13.6607 5.54364C13.6881 7.06868 13.6881 7.09214 13.7934 7.24699C13.9857 7.51915 14.1825 7.58484 14.8235 7.58484C15.5102 7.58484 15.7207 7.50507 15.8947 7.16253C16 6.96544 16 6.9326 16 5.54364C16 3.98107 15.9634 3.61037 15.7345 2.95343C15.4735 2.18857 14.9608 1.45655 14.329 0.94039C13.9353 0.621305 13.2166 0.250607 12.7268 0.123911C12.2552 -0.00278473 11.4266 -0.0403233 10.978 0.0488319ZM12.6123 0.921621C13.212 1.09524 13.6332 1.35802 14.123 1.8601C14.59 2.33873 14.8006 2.65781 14.9791 3.16459C15.1805 3.72299 15.2172 4.0843 15.2217 5.48264V6.78713H14.8326H14.4435V5.49672C14.4435 4.01392 14.4023 3.69014 14.1322 3.12705C13.9308 2.70943 13.4546 2.18857 13.0701 1.96803C12.6123 1.70525 12.2735 1.6114 11.7425 1.60671C11.3671 1.60202 11.1931 1.62548 10.9413 1.70525C10.1173 1.97272 9.4123 2.65781 9.13305 3.46491C8.97282 3.92945 8.94993 4.28608 8.94993 6.16773V8.01185L8.57454 7.99777L8.19456 7.9837L8.18083 6.15366C8.17167 5.09317 8.18999 4.16877 8.21288 3.95761C8.42346 2.32934 9.61831 1.07178 11.216 0.809002C11.5136 0.762079 12.2735 0.82308 12.6123 0.921621ZM10.5522 8.9081C10.6346 8.9691 10.7491 9.07703 10.7994 9.14742C10.8956 9.2788 10.8956 9.30226 10.8956 12.7934C10.8956 16.2846 10.8956 16.308 10.7994 16.4394C10.7491 16.5098 10.6346 16.6177 10.5522 16.674L10.4011 16.782H5.83691H1.27268L1.1216 16.674C1.0392 16.6177 0.92475 16.5098 0.874392 16.4394C0.778255 16.308 0.778255 16.2846 0.778255 12.8028V9.29757L0.888126 9.14272C0.94764 9.05357 1.06209 8.94095 1.13991 8.89402C1.27725 8.80956 1.44664 8.80487 5.84149 8.80487H10.4011L10.5522 8.9081ZM6.61516 17.9551C6.61516 18.1568 6.63805 18.3774 6.66552 18.4431C6.69757 18.5088 6.85322 18.6402 7.01345 18.7387C7.36137 18.9452 7.75966 19.3675 7.91989 19.696C8.63405 21.1318 7.77797 22.8915 6.23062 23.1683C5.03577 23.3795 3.85007 22.5771 3.57082 21.3758C3.33276 20.3247 3.76309 19.2736 4.66495 18.734C4.83433 18.6308 4.98999 18.5135 5.01745 18.4665C5.04034 18.4196 5.05866 18.2038 5.05866 17.9832V17.5797H5.83691H6.61516V17.9551Z" fill="white"/>
<path d="M5.65047 10.0236C4.82715 10.1798 4.13557 10.9454 4.01795 11.837C3.93327 12.4616 4.15439 13.192 4.54958 13.6152L4.75658 13.8418L4.78011 14.411C4.81774 15.2271 4.96829 15.5696 5.41994 15.8315C6.03625 16.1892 6.74194 15.9625 7.06186 15.2926C7.17006 15.0709 7.18888 14.9601 7.2077 14.4463L7.22652 13.8569L7.43352 13.6252C8.60498 12.3156 7.85224 10.1697 6.15857 10.0085C6.00331 9.99339 5.77279 9.99843 5.65047 10.0236ZM6.51141 10.9857C6.78428 11.1167 6.91601 11.2527 7.06656 11.56C7.33002 12.1141 7.17006 12.8142 6.69019 13.182C6.57257 13.2726 6.45966 13.3834 6.44555 13.4288C6.43144 13.4741 6.41732 13.7763 6.41732 14.1088C6.41732 14.809 6.36087 15.0105 6.13975 15.1062C5.97038 15.1868 5.73985 15.1112 5.66458 14.9551C5.63635 14.9047 5.61753 14.5974 5.61753 14.265C5.61753 13.5597 5.57519 13.4036 5.34466 13.2122C4.96359 12.9049 4.81774 12.6127 4.81774 12.1392C4.81774 11.1721 5.66458 10.5928 6.51141 10.9857Z" fill="white"/>
<path d="M5.18237 21.0706C4.98122 21.2294 4.93784 21.6471 5.0956 21.8706C5.18237 21.9941 5.22181 22 5.99485 22C6.78366 22 6.80732 21.9941 6.88621 21.8647C6.92959 21.7941 6.98086 21.6765 6.99269 21.6059C7.02819 21.4353 6.92959 21.1588 6.79944 21.0706C6.66534 20.9765 5.2928 20.9765 5.18237 21.0706Z" fill="white"/>
</svg>
