<svg width="31" height="26" viewBox="0 0 31 26" fill="none" xmlns="http://www.w3.org/2000/svg">
<path d="M28.9142 0.142351C26.8527 0.905545 1.41685 10.7416 1.04092 10.9248C-0.202066 11.517 -0.347587 12.2985 0.689248 12.8297C0.792325 12.8846 2.50826 13.4341 4.51523 14.063L8.15931 15.2047L16.4297 9.99061C20.9833 7.1271 24.7972 4.74594 24.9063 4.7093C25.1913 4.61161 25.4338 4.61772 25.543 4.73373C25.6218 4.8131 25.6279 4.84973 25.5612 4.96574C25.5248 5.04511 22.4992 7.81092 18.849 11.1079C15.1989 14.411 12.1975 17.1341 12.1854 17.1646C12.1733 17.1952 12.052 18.8437 11.9125 20.828L11.6579 24.4302L11.9368 24.3936C12.0884 24.3753 12.3248 24.2959 12.4643 24.2165C12.6098 24.1433 13.5557 23.2763 14.5804 22.2933C15.5991 21.3103 16.4722 20.486 16.5146 20.4738C16.5571 20.4555 18.1821 21.6156 20.1284 23.0504C22.0687 24.4852 23.8089 25.7246 23.9968 25.8101C24.4879 26.0421 25.0337 26.0604 25.3914 25.8711C25.7127 25.7002 26.022 25.2728 26.1554 24.8271C26.2039 24.6561 27.3195 19.4847 28.6232 13.3364C30.7999 3.10354 31 2.11444 31 1.58326C31 1.08261 30.9818 0.960496 30.8484 0.697958C30.7575 0.508686 30.5938 0.319415 30.4361 0.209515C30.0784 -0.0408122 29.4842 -0.0713434 28.9142 0.142351Z" fill="white"/>
</svg>
