<svg width="70" height="70" viewBox="0 0 70 70" fill="none" xmlns="http://www.w3.org/2000/svg">
<path d="M6.56299 6.74023C5.89307 6.95898 4.74463 8.13476 4.53955 8.83202C4.30713 9.65234 4.30713 47.2227 4.53955 48.043C4.7583 48.7949 5.89307 49.9297 6.64502 50.1484C7.06885 50.2715 9.88525 50.3125 17.8286 50.3125H28.438V53.5801V56.8477L26.0728 56.9023C23.7622 56.9434 23.6802 56.957 23.147 57.3125C22.8462 57.5176 22.4497 57.9141 22.272 58.2012C21.9849 58.666 21.9438 58.8848 21.9438 60.1562C21.9438 61.4277 21.9849 61.6465 22.272 62.1113C22.4497 62.3984 22.8462 62.7949 23.147 63L23.7075 63.3691H35.0005H46.2935L46.854 63C47.1548 62.7949 47.5513 62.3984 47.729 62.1113C48.0161 61.6465 48.0571 61.4277 48.0571 60.1562C48.0571 58.8848 48.0161 58.666 47.729 58.2012C47.5513 57.9141 47.1548 57.5176 46.854 57.3125C46.3208 56.957 46.2388 56.9434 43.9282 56.9023L41.563 56.8477V53.5801V50.3125H52.1997C64.313 50.3125 63.6841 50.3672 64.7095 49.2187C65.0376 48.8633 65.3794 48.3164 65.4614 48.0156C65.5845 47.6191 65.6255 44.1191 65.6255 34.4668V21.4512L65.2837 21.123C64.8462 20.6719 64.2173 20.6719 63.7798 21.123L63.438 21.4512V30.4199V39.375H40.811H18.1704L17.8423 39.7168C17.6235 39.9219 17.5005 40.209 17.5005 40.4687C17.5005 40.7285 17.6235 41.0156 17.8423 41.2207L18.1704 41.5625H40.811H63.438V44.502C63.438 47.4551 63.438 47.4551 63.0962 47.7832L62.7681 48.125H35.0005H7.23291L6.90479 47.7832C6.56299 47.4551 6.56299 47.4551 6.56299 44.502V41.5625H9.50244C12.4556 41.5625 12.4556 41.5625 12.7837 41.2207C13.2349 40.7832 13.2349 40.1543 12.7837 39.7168C12.4556 39.375 12.4556 39.375 9.50244 39.375H6.56299V24.4043V9.41991L6.90479 9.09179L7.23291 8.74999H35.0005H62.7681L63.0962 9.09179C63.4243 9.40624 63.438 9.51562 63.438 10.9375C63.438 12.3594 63.4517 12.4687 63.7798 12.7832C64.2173 13.2344 64.8462 13.2344 65.2837 12.7832C65.6118 12.4687 65.6255 12.3594 65.6255 10.9238C65.6255 9.05077 65.4751 8.5039 64.7095 7.65624C63.6294 6.45312 66.4185 6.56249 34.9458 6.57616C15.0122 6.58984 6.90479 6.63085 6.56299 6.74023ZM39.3755 53.5937V56.875H35.0005H30.6255V53.5937V50.3125H35.0005H39.3755V53.5937ZM45.7739 59.2266C45.8696 59.3223 45.938 59.7324 45.938 60.1562C45.938 60.5801 45.8696 60.9902 45.7739 61.0859C45.5415 61.3184 24.4595 61.3184 24.2271 61.0859C24.1313 60.9902 24.063 60.5801 24.063 60.1562C24.063 59.7324 24.1313 59.3223 24.2271 59.2266C24.4595 58.9941 45.5415 58.9941 45.7739 59.2266Z" fill="#515595"/>
<path d="M19.7837 11.0195C19.729 11.0742 19.688 16.4883 19.688 23.0645V35H18.5942H17.5005L17.4731 27.3711L17.4321 19.7559H14.2192H11.0063L10.9653 25.1836L10.938 30.625H12.0317H13.1255V26.25V21.875H14.2192H15.313V28.4375V35H14.2192H13.1255V33.9063V32.8125H12.0317H10.938V33.9063V35H10.186C9.55713 35 9.36572 35.0547 9.09229 35.3418C8.64111 35.7793 8.64111 36.4082 9.09229 36.8457L9.42041 37.1875H22.9692H36.5181L36.8462 36.8457C37.2974 36.4082 37.2974 35.7793 36.8462 35.3418C36.5728 35.0547 36.3814 35 35.7524 35H35.0005V28.4375V21.875H33.9067H32.813V28.4375V35H31.7192H30.6255V26.25V17.5H31.7192H32.813V18.5938V19.6875H33.9067H35.0142L34.9731 17.5273L34.9321 15.3809H31.7192H28.5063L28.4653 25.1836L28.438 35H27.3442H26.2505L26.2231 22.9961L26.1821 11.0059L23.0239 10.9648C21.2876 10.9512 19.8384 10.9785 19.7837 11.0195ZM24.063 24.0625V35H22.9692H21.8755V24.0625V13.125H22.9692H24.063V24.0625Z" fill="#515595"/>
<path d="M63.7793 15.6543C63.4785 15.9414 63.4375 16.1055 63.4375 16.9531C63.4375 17.8008 63.4785 17.9648 63.7793 18.252C63.9844 18.4707 64.2715 18.5938 64.5313 18.5938C64.791 18.5938 65.0781 18.4707 65.2832 18.252C65.584 17.9648 65.625 17.8008 65.625 16.9531C65.625 16.1055 65.584 15.9414 65.2832 15.6543C65.0781 15.4355 64.791 15.3125 64.5313 15.3125C64.2715 15.3125 63.9844 15.4355 63.7793 15.6543Z" fill="#515595"/>
<path d="M39.7168 21.123C39.498 21.3281 39.375 21.6152 39.375 21.875C39.375 22.1348 39.498 22.4219 39.7168 22.627L40.0449 22.9688H50.3125H60.5801L60.9082 22.627C61.3594 22.1895 61.3594 21.5605 60.9082 21.123L60.5801 20.7812H50.3125H40.0449L39.7168 21.123Z" fill="#515595"/>
<path d="M39.7168 25.498C39.498 25.7031 39.375 25.9902 39.375 26.25C39.375 26.5098 39.498 26.7969 39.7168 27.002C40.0312 27.3301 40.1406 27.3438 41.5625 27.3438C42.9844 27.3438 43.0938 27.3301 43.4082 27.002C43.627 26.7969 43.75 26.5098 43.75 26.25C43.75 25.9902 43.627 25.7031 43.4082 25.498C43.0938 25.1699 42.9844 25.1562 41.5625 25.1562C40.1406 25.1562 40.0312 25.1699 39.7168 25.498Z" fill="#515595"/>
<path d="M46.2793 25.498C46.0605 25.7031 45.9375 25.9902 45.9375 26.25C45.9375 26.5098 46.0605 26.7969 46.2793 27.002L46.6074 27.3438H53.5938H60.5801L60.9082 27.002C61.127 26.7969 61.25 26.5098 61.25 26.25C61.25 25.9902 61.127 25.7031 60.9082 25.498L60.5801 25.1562H53.5938H46.6074L46.2793 25.498Z" fill="#515595"/>
<path d="M39.7168 29.873C39.498 30.0781 39.375 30.3652 39.375 30.625C39.375 30.8848 39.498 31.1719 39.7168 31.377L40.0449 31.7188H47.0312H54.0176L54.3457 31.377C54.5645 31.1719 54.6875 30.8848 54.6875 30.625C54.6875 30.3652 54.5645 30.0781 54.3457 29.873L54.0176 29.5312H47.0312H40.0449L39.7168 29.873Z" fill="#515595"/>
<path d="M57.2168 29.873C56.998 30.0781 56.875 30.3652 56.875 30.625C56.875 30.8848 56.998 31.1719 57.2168 31.377C57.5312 31.7051 57.6406 31.7188 59.0625 31.7188C60.4844 31.7188 60.5938 31.7051 60.9082 31.377C61.127 31.1719 61.25 30.8848 61.25 30.625C61.25 30.3652 61.127 30.0781 60.9082 29.873C60.5938 29.5449 60.4844 29.5312 59.0625 29.5312C57.6406 29.5312 57.5312 29.5449 57.2168 29.873Z" fill="#515595"/>
</svg>
