<svg width="70" height="70" viewBox="0 0 70 70" fill="none" xmlns="http://www.w3.org/2000/svg">
<path d="M32.8125 18.0469V31.7188H36.0938H39.375V35.4785V39.2383L45.0078 35.4785L50.6543 31.7188H58.1328H65.625V18.0469V4.375H49.2188H32.8125V18.0469ZM63.4375 18.0469V29.5312H56.6973H49.9707L45.7598 32.334L41.5625 35.1367V32.334V29.5312H38.2812H35V18.0469V6.5625H49.2188H63.4375V18.0469Z" fill="#515595"/>
<path d="M37.1875 18.0469V27.3438H49.2188H61.25V19.1406V10.9375H57.9688H54.6875V18.0469V25.1562H53.5938H52.5V20.2344V15.3125H49.2188H45.9375V20.2344V25.1562H44.8438H43.75V16.9531V8.75H40.4688H37.1875V18.0469ZM41.5625 18.0469V25.1562H40.4688H39.375V18.0469V10.9375H40.4688H41.5625V18.0469ZM59.0625 19.1406V25.1562H57.9688H56.875V19.1406V13.125H57.9688H59.0625V19.1406ZM50.3125 21.3281V25.1562H49.2188H48.125V21.3281V17.5H49.2188H50.3125V21.3281Z" fill="#515595"/>
<path d="M7.65625 43.7501V59.0626H6.01562H4.375V60.8126C4.375 62.9864 4.56641 63.6427 5.46875 64.5314C6.64453 65.7208 4.30664 65.6251 31.7188 65.6251C59.1309 65.6251 56.793 65.7208 57.9688 64.5314C58.8711 63.6427 59.0625 62.9864 59.0625 60.8126V59.0626H57.4219H55.7812V46.4845V33.9064H54.6875H53.5938V46.4845V59.0626H31.7188H9.84375V44.8439V30.6251H20.2344H30.625V29.5314V28.4376H19.1406H7.65625V43.7501ZM56.875 61.879C56.875 62.4122 56.8066 62.5763 56.4102 62.9728L55.9453 63.4376H31.7188H7.49219L7.02734 62.9728C6.63086 62.5763 6.5625 62.4122 6.5625 61.879V61.2501H31.7188H56.875V61.879Z" fill="#515595"/>
<path d="M12.0312 39.9219V47.0312H14.7656H17.5V49.7656V52.5H27.3438H37.1875V45.3906V38.2812H33.3594H29.5312V35.5469V32.8125H20.7812H12.0312V39.9219ZM27.3438 36.6406V38.2812H22.4219H17.5V41.5625V44.8438H15.8594H14.2188V39.9219V35H20.7812H27.3438V36.6406ZM35 45.3906V50.3125H27.3438H19.6875V45.3906V40.4688H27.3438H35V45.3906Z" fill="#515595"/>
<path d="M39.375 42.6562V43.75H45.3906H51.4062V42.6562V41.5625H45.3906H39.375V42.6562Z" fill="#515595"/>
<path d="M39.375 47.0312V48.125H43.2031H47.0312V47.0312V45.9375H43.2031H39.375V47.0312Z" fill="#515595"/>
<path d="M49.2188 47.0312V48.125H50.3125H51.4062V47.0312V45.9375H50.3125H49.2188V47.0312Z" fill="#515595"/>
<path d="M39.375 51.4062V52.5H40.4688H41.5625V51.4062V50.3125H40.4688H39.375V51.4062Z" fill="#515595"/>
<path d="M43.75 51.4062V52.5H47.5781H51.4062V51.4062V50.3125H47.5781H43.75V51.4062Z" fill="#515595"/>
<path d="M13.125 55.7812V56.875H22.4219H31.7188V55.7812V54.6875H22.4219H13.125V55.7812Z" fill="#515595"/>
<path d="M33.9062 55.7812V56.875H35H36.0938V55.7812V54.6875H35H33.9062V55.7812Z" fill="#515595"/>
</svg>
