<svg width="70" height="70" viewBox="0 0 70 70" fill="none" xmlns="http://www.w3.org/2000/svg">
<path d="M35.0005 7.83417C34.3306 8.05292 33.1821 9.2287 32.9771 9.92596C32.7446 10.7326 32.7446 28.6428 32.9771 29.4494C33.1958 30.2014 34.3306 31.3361 35.0825 31.5549C35.397 31.6506 36.2446 31.7189 36.9692 31.7189H38.2817V34.6584C38.2817 37.6115 38.2817 37.6115 38.6235 37.9396C39.2798 38.6096 39.4028 38.5275 44.106 35.0002L48.4673 31.7189H54.5649C61.5786 31.7189 61.5376 31.7189 62.522 30.6252C62.8501 30.2697 63.1919 29.7228 63.2739 29.4221C63.5063 28.6564 63.5063 10.7189 63.2739 9.95331C63.1919 9.65253 62.8501 9.10565 62.522 8.75018C61.4829 7.58807 62.3579 7.65643 48.0708 7.6701C39.3071 7.68378 35.3286 7.72479 35.0005 7.83417ZM60.9087 10.1857L61.2505 10.5139V19.6877V28.8615L60.9087 29.1896L60.5806 29.5314H54.1684H47.7563L44.1196 32.2658L40.4692 35.0002V32.6076C40.4692 30.2424 40.4692 30.2014 40.1274 29.8732C39.813 29.5451 39.7446 29.5314 37.7349 29.5314C35.7251 29.5314 35.6567 29.5178 35.3423 29.1896L35.0005 28.8615V19.6877V10.5139L35.3423 10.1857L35.6704 9.84393H48.1255H60.5806L60.9087 10.1857Z" fill="#515595"/>
<path d="M39.7168 12.373C39.498 12.5781 39.375 12.8652 39.375 13.125C39.375 13.3848 39.498 13.6719 39.7168 13.877L40.0449 14.2188H45.3906H50.7363L51.0645 13.877C51.2832 13.6719 51.4062 13.3848 51.4062 13.125C51.4062 12.8652 51.2832 12.5781 51.0645 12.373L50.7363 12.0312H45.3906H40.0449L39.7168 12.373Z" fill="#515595"/>
<path d="M53.9355 12.373C53.7168 12.5781 53.5938 12.8652 53.5938 13.125C53.5938 13.3848 53.7168 13.6719 53.9355 13.877C54.2227 14.1777 54.3867 14.2188 55.2344 14.2188C56.082 14.2188 56.2461 14.1777 56.5332 13.877C56.752 13.6719 56.875 13.3848 56.875 13.125C56.875 12.8652 56.752 12.5781 56.5332 12.373C56.2461 12.0723 56.082 12.0312 55.2344 12.0312C54.3867 12.0312 54.2227 12.0723 53.9355 12.373Z" fill="#515595"/>
<path d="M39.7168 16.748C39.498 16.9531 39.375 17.2402 39.375 17.5C39.375 17.7598 39.498 18.0469 39.7168 18.252C40.0039 18.5527 40.168 18.5938 41.0156 18.5938C41.8633 18.5938 42.0273 18.5527 42.3145 18.252C42.5332 18.0469 42.6562 17.7598 42.6562 17.5C42.6562 17.2402 42.5332 16.9531 42.3145 16.748C42.0273 16.4473 41.8633 16.4062 41.0156 16.4062C40.168 16.4062 40.0039 16.4473 39.7168 16.748Z" fill="#515595"/>
<path d="M45.1855 16.748C44.9668 16.9531 44.8438 17.2402 44.8438 17.5C44.8438 17.7598 44.9668 18.0469 45.1855 18.252L45.5137 18.5938H50.8594H56.2051L56.5332 18.252C56.752 18.0469 56.875 17.7598 56.875 17.5C56.875 17.2402 56.752 16.9531 56.5332 16.748L56.2051 16.4062H50.8594H45.5137L45.1855 16.748Z" fill="#515595"/>
<path d="M39.7168 21.123C39.498 21.3281 39.375 21.6152 39.375 21.875C39.375 22.1348 39.498 22.4219 39.7168 22.627L40.0449 22.9688H48.125H56.2051L56.5332 22.627C56.752 22.4219 56.875 22.1348 56.875 21.875C56.875 21.6152 56.752 21.3281 56.5332 21.123L56.2051 20.7812H48.125H40.0449L39.7168 21.123Z" fill="#515595"/>
<path d="M39.7168 25.498C39.498 25.7031 39.375 25.9902 39.375 26.25C39.375 26.5098 39.498 26.7969 39.7168 27.002L40.0449 27.3438H45.9375H51.8301L52.1582 27.002C52.377 26.7969 52.5 26.5098 52.5 26.25C52.5 25.9902 52.377 25.7031 52.1582 25.498L51.8301 25.1562H45.9375H40.0449L39.7168 25.498Z" fill="#515595"/>
<path d="M29.3262 31.5684C29.1074 31.7051 26.4824 34.2617 23.5156 37.2422L18.1152 42.6562H17.2676H16.4062V41.9043C16.4062 41.2754 16.3516 41.084 16.0645 40.8105L15.7363 40.4687H12.0312H8.32617L7.99805 40.8105L7.65625 41.1387V47.0312V52.9238L7.99805 53.252C8.43555 53.7031 9.06445 53.7031 9.50195 53.252L9.84375 52.9238V47.7832V42.6562H12.0312H14.2188V51.4062V60.1562H11.2793C8.32617 60.1562 8.32617 60.1562 7.99805 60.498C7.54688 60.9355 7.54688 61.5645 7.99805 62.002L8.32617 62.3438H12.0312H15.7363L16.0645 62.002C16.3926 61.6875 16.4062 61.6055 16.4062 59.8145V57.9687H18.252C20.043 57.9687 20.125 57.9551 20.4395 57.627C20.8906 57.1895 20.8906 56.5605 20.4395 56.123C20.125 55.7949 20.043 55.7812 18.252 55.7812H16.4062V50.3125V44.8437H17.7324H19.0586L24.4316 39.4844C27.3848 36.5312 29.8457 34.166 29.9004 34.2344C29.9551 34.2891 30.0234 34.7539 30.0508 35.2598C30.1328 36.5723 29.8594 37.0918 28.1504 38.8965C27.3711 39.7305 25.8809 41.3164 24.8418 42.4375L22.9551 44.4473L22.9961 48.3301C23.0371 51.9941 23.0508 52.2266 23.3242 52.582C23.4746 52.7871 23.7754 53.0879 23.9805 53.2383C24.3496 53.5254 24.5 53.5254 33.7559 53.5664L43.1621 53.5937L47.7285 49.2871C50.4082 46.7578 52.5273 44.8574 52.8691 44.6934C53.6484 44.3105 55.5078 44.3105 55.5078 44.707C55.5078 44.7617 53.0059 47.291 49.957 50.2988L44.3926 55.7812H34.0156H23.6387L23.3105 56.123C22.8594 56.5605 22.8594 57.1895 23.3105 57.627L23.6387 57.9687H34.4668H45.2949L51.3242 52.0078C58.8301 44.584 58.3789 45.0625 58.3789 44.4609C58.3789 43.5312 56.793 42.4922 54.9473 42.1914C54.209 42.082 53.9902 41.9863 53.8809 41.7539C53.7031 41.3711 52.6504 40.6328 51.8027 40.3184C50.3262 39.7578 48.7266 39.8672 47.3047 40.6191C46.7715 40.9062 44.9668 42.5332 41.0977 46.2109L35.6562 51.4062H30.4062H25.1562V48.3437V45.2812L28.041 42.2324C31.1309 38.9512 31.8691 37.9941 32.1289 36.9004C32.3613 35.916 32.2383 34.2617 31.8691 33.4277C31.4453 32.4707 30.9121 31.7324 30.4746 31.5C29.9824 31.2539 29.8184 31.2539 29.3262 31.5684ZM50.791 42.2598L51.3379 42.4238L46.7578 46.9082L42.1777 51.3926L40.5098 51.4062H38.8418L43.1895 47.2363C45.5957 44.9395 47.7148 42.9297 47.9199 42.7656C48.6992 42.1641 49.752 41.9727 50.791 42.2598Z" fill="#515595"/>
<path d="M7.99805 56.123C7.7793 56.3281 7.65625 56.6152 7.65625 56.875C7.65625 57.1348 7.7793 57.4219 7.99805 57.627C8.20312 57.8457 8.49023 57.9688 8.75 57.9688C9.00977 57.9688 9.29688 57.8457 9.50195 57.627C9.7207 57.4219 9.84375 57.1348 9.84375 56.875C9.84375 56.6152 9.7207 56.3281 9.50195 56.123C9.29688 55.9043 9.00977 55.7812 8.75 55.7812C8.49023 55.7812 8.20312 55.9043 7.99805 56.123Z" fill="#515595"/>
</svg>
