<svg width="161" height="66" viewBox="0 0 161 66" fill="none" xmlns="http://www.w3.org/2000/svg">
<path d="M0 36.5941V0H161V36.5941L80.5 66L0 36.5941Z" fill="#515595"/>
<path d="M58.941 33.216C57.657 33.216 56.493 32.94 55.449 32.388C54.417 31.824 53.601 31.05 53.001 30.066C52.413 29.07 52.119 27.948 52.119 26.7C52.119 25.452 52.413 24.336 53.001 23.352C53.601 22.356 54.417 21.582 55.449 21.03C56.493 20.466 57.663 20.184 58.959 20.184C60.051 20.184 61.035 20.376 61.911 20.76C62.799 21.144 63.543 21.696 64.143 22.416L62.271 24.144C61.419 23.16 60.363 22.668 59.103 22.668C58.323 22.668 57.627 22.842 57.015 23.19C56.403 23.526 55.923 24 55.575 24.612C55.239 25.224 55.071 25.92 55.071 26.7C55.071 27.48 55.239 28.176 55.575 28.788C55.923 29.4 56.403 29.88 57.015 30.228C57.627 30.564 58.323 30.732 59.103 30.732C60.363 30.732 61.419 30.234 62.271 29.238L64.143 30.966C63.543 31.698 62.799 32.256 61.911 32.64C61.023 33.024 60.033 33.216 58.941 33.216ZM75.5295 23.316L71.1555 33.594C70.7115 34.71 70.1595 35.496 69.4995 35.952C68.8515 36.408 68.0655 36.636 67.1415 36.636C66.6375 36.636 66.1395 36.558 65.6475 36.402C65.1555 36.246 64.7535 36.03 64.4415 35.754L65.4675 33.756C65.6835 33.948 65.9295 34.098 66.2055 34.206C66.4935 34.314 66.7755 34.368 67.0515 34.368C67.4355 34.368 67.7475 34.272 67.9875 34.08C68.2275 33.9 68.4435 33.594 68.6355 33.162L68.6715 33.072L64.4775 23.316H67.3755L70.0935 29.886L72.8295 23.316H75.5295ZM85.1081 25.62H81.8321V33H79.0421V25.62H75.7661V23.316H85.1081V25.62ZM90.8709 29.328H89.4129V33H86.6049V23.316H89.4129V27.078H90.9249L93.5529 23.316H96.5409L93.1569 27.96L96.7749 33H93.4629L90.8709 29.328ZM98.1537 23.316H100.944V29.076L105.66 23.316H108.234V33H105.444V27.24L100.746 33H98.1537V23.316Z" fill="white"/>
</svg>
