<svg width="161" height="66" viewBox="0 0 161 66" fill="none" xmlns="http://www.w3.org/2000/svg">
<path d="M0 36.5941V0H161V36.5941L80.5 66L0 36.5941Z" fill="#515595"/>
<path d="M57.331 20.4V33H54.415V27.834H48.691V33H45.775V20.4H48.691V25.368H54.415V20.4H57.331ZM69.6859 28.194C69.6859 28.23 69.6679 28.482 69.6319 28.95H62.3059C62.4379 29.55 62.7499 30.024 63.2419 30.372C63.7339 30.72 64.3459 30.894 65.0779 30.894C65.5819 30.894 66.0259 30.822 66.4099 30.678C66.8059 30.522 67.1719 30.282 67.5079 29.958L69.0019 31.578C68.0899 32.622 66.7579 33.144 65.0059 33.144C63.9139 33.144 62.9479 32.934 62.1079 32.514C61.2679 32.082 60.6199 31.488 60.1639 30.732C59.7079 29.976 59.4799 29.118 59.4799 28.158C59.4799 27.21 59.7019 26.358 60.1459 25.602C60.6019 24.834 61.2199 24.24 61.9999 23.82C62.7919 23.388 63.6739 23.172 64.6459 23.172C65.5939 23.172 66.4519 23.376 67.2199 23.784C67.9879 24.192 68.5879 24.78 69.0199 25.548C69.4639 26.304 69.6859 27.186 69.6859 28.194ZM64.6639 25.296C64.0279 25.296 63.4939 25.476 63.0619 25.836C62.6299 26.196 62.3659 26.688 62.2699 27.312H67.0399C66.9439 26.7 66.6799 26.214 66.2479 25.854C65.8159 25.482 65.2879 25.296 64.6639 25.296ZM82.6044 30.696V35.088H79.9944V33H73.1904V35.088H70.5804V30.696H70.9764C71.5764 30.684 71.9904 30.33 72.2184 29.634C72.4464 28.938 72.5904 27.948 72.6504 26.664L72.7764 23.316H81.2184V30.696H82.6044ZM75.1884 26.862C75.1524 27.846 75.0744 28.65 74.9544 29.274C74.8464 29.898 74.6364 30.372 74.3244 30.696H78.4104V25.62H75.2424L75.1884 26.862ZM93.7855 28.194C93.7855 28.23 93.7675 28.482 93.7315 28.95H86.4055C86.5375 29.55 86.8495 30.024 87.3415 30.372C87.8335 30.72 88.4455 30.894 89.1775 30.894C89.6815 30.894 90.1255 30.822 90.5095 30.678C90.9055 30.522 91.2715 30.282 91.6075 29.958L93.1015 31.578C92.1895 32.622 90.8575 33.144 89.1055 33.144C88.0135 33.144 87.0475 32.934 86.2075 32.514C85.3675 32.082 84.7195 31.488 84.2635 30.732C83.8075 29.976 83.5795 29.118 83.5795 28.158C83.5795 27.21 83.8015 26.358 84.2455 25.602C84.7015 24.834 85.3195 24.24 86.0995 23.82C86.8915 23.388 87.7735 23.172 88.7455 23.172C89.6935 23.172 90.5515 23.376 91.3195 23.784C92.0875 24.192 92.6875 24.78 93.1195 25.548C93.5635 26.304 93.7855 27.186 93.7855 28.194ZM88.7635 25.296C88.1275 25.296 87.5935 25.476 87.1615 25.836C86.7295 26.196 86.4655 26.688 86.3695 27.312H91.1395C91.0435 26.7 90.7795 26.214 90.3475 25.854C89.9155 25.482 89.3875 25.296 88.7635 25.296ZM105.138 23.316V33H102.33V25.62H99.27L99.18 27.33C99.132 28.602 99.012 29.658 98.82 30.498C98.628 31.338 98.316 31.998 97.884 32.478C97.452 32.958 96.852 33.198 96.084 33.198C95.676 33.198 95.19 33.126 94.626 32.982L94.77 30.678C94.962 30.702 95.1 30.714 95.184 30.714C95.604 30.714 95.916 30.564 96.12 30.264C96.336 29.952 96.48 29.562 96.552 29.094C96.624 28.614 96.678 27.984 96.714 27.204L96.858 23.316H105.138ZM116.442 23.316V33H113.94V30.228H111.87L110.034 33H107.046L109.26 29.832C108.588 29.568 108.072 29.19 107.712 28.698C107.364 28.194 107.19 27.588 107.19 26.88C107.19 25.74 107.598 24.864 108.414 24.252C109.242 23.628 110.376 23.316 111.816 23.316H116.442ZM111.87 25.602C111.27 25.602 110.814 25.71 110.502 25.926C110.202 26.142 110.052 26.49 110.052 26.97C110.052 27.45 110.196 27.804 110.484 28.032C110.784 28.248 111.234 28.356 111.834 28.356H113.94V25.602H111.87Z" fill="white"/>
</svg>
