<svg width="161" height="66" viewBox="0 0 161 66" fill="none" xmlns="http://www.w3.org/2000/svg">
<path d="M0 36.5941V0H161V36.5941L80.5 66L0 36.5941Z" fill="#515595"/>
<path d="M62.3914 33L62.3734 25.458L58.6654 31.668H57.3694L53.6614 25.602V33H50.9254V20.4H53.3374L58.0534 28.23L62.6974 20.4H65.1094L65.1274 33H62.3914ZM77.4554 28.194C77.4554 28.23 77.4374 28.482 77.4014 28.95H70.0754C70.2074 29.55 70.5194 30.024 71.0114 30.372C71.5034 30.72 72.1154 30.894 72.8474 30.894C73.3514 30.894 73.7954 30.822 74.1794 30.678C74.5754 30.522 74.9414 30.282 75.2774 29.958L76.7714 31.578C75.8594 32.622 74.5274 33.144 72.7754 33.144C71.6834 33.144 70.7174 32.934 69.8774 32.514C69.0374 32.082 68.3894 31.488 67.9334 30.732C67.4774 29.976 67.2494 29.118 67.2494 28.158C67.2494 27.21 67.4714 26.358 67.9154 25.602C68.3714 24.834 68.9894 24.24 69.7694 23.82C70.5614 23.388 71.4434 23.172 72.4154 23.172C73.3634 23.172 74.2214 23.376 74.9894 23.784C75.7574 24.192 76.3574 24.78 76.7894 25.548C77.2334 26.304 77.4554 27.186 77.4554 28.194ZM72.4334 25.296C71.7974 25.296 71.2634 25.476 70.8314 25.836C70.3994 26.196 70.1354 26.688 70.0394 27.312H74.8094C74.7134 26.7 74.4494 26.214 74.0174 25.854C73.5854 25.482 73.0574 25.296 72.4334 25.296ZM84.2158 33.144C83.1838 33.144 82.2538 32.934 81.4258 32.514C80.6098 32.082 79.9678 31.488 79.4998 30.732C79.0438 29.976 78.8158 29.118 78.8158 28.158C78.8158 27.198 79.0438 26.34 79.4998 25.584C79.9678 24.828 80.6098 24.24 81.4258 23.82C82.2538 23.388 83.1838 23.172 84.2158 23.172C85.2358 23.172 86.1238 23.388 86.8798 23.82C87.6478 24.24 88.2058 24.846 88.5538 25.638L86.3758 26.808C85.8718 25.92 85.1458 25.476 84.1978 25.476C83.4658 25.476 82.8598 25.716 82.3798 26.196C81.8998 26.676 81.6598 27.33 81.6598 28.158C81.6598 28.986 81.8998 29.64 82.3798 30.12C82.8598 30.6 83.4658 30.84 84.1978 30.84C85.1578 30.84 85.8838 30.396 86.3758 29.508L88.5538 30.696C88.2058 31.464 87.6478 32.064 86.8798 32.496C86.1238 32.928 85.2358 33.144 84.2158 33.144ZM98.6181 23.316V33H96.1161V30.228H94.0461L92.2101 33H89.2221L91.4361 29.832C90.7641 29.568 90.2481 29.19 89.8881 28.698C89.5401 28.194 89.3661 27.588 89.3661 26.88C89.3661 25.74 89.7741 24.864 90.5901 24.252C91.4181 23.628 92.5521 23.316 93.9921 23.316H98.6181ZM94.0461 25.602C93.4461 25.602 92.9901 25.71 92.6781 25.926C92.3781 26.142 92.2281 26.49 92.2281 26.97C92.2281 27.45 92.3721 27.804 92.6601 28.032C92.9601 28.248 93.4101 28.356 94.0101 28.356H96.1161V25.602H94.0461ZM112.225 30.696V35.124H109.615V33H101.317V23.316H104.107V30.696H108.013V23.316H110.821V30.696H112.225Z" fill="white"/>
</svg>
