<svg width="181" height="66" viewBox="0 0 181 66" fill="none" xmlns="http://www.w3.org/2000/svg">
<path d="M0 36.5941V0H181V36.5941L90.5 66L0 36.5941Z" fill="#515595"/>
<path d="M71.3813 12.071C64.7118 12.5693 59.1729 17.8805 58.1693 24.7654C57.1911 31.3355 60.5195 37.6959 66.4141 40.5809C70.5555 42.6005 75.7133 42.43 79.6769 40.1613C81.2522 39.2564 80.3375 40.0564 94.8834 26.7325C102.76 19.5198 103.128 19.205 104.056 18.7067C107.105 17.0543 110.649 17.2248 113.418 19.1395C115.197 20.3591 116.467 22.0901 117.153 24.2146C117.446 25.0932 117.484 25.4473 117.484 26.9948C117.484 28.5422 117.446 28.8963 117.153 29.775C116.467 31.8994 115.197 33.6305 113.418 34.8501C110.712 36.7254 107.181 36.9221 104.208 35.3878C103.281 34.9026 102.658 34.3911 100.524 32.424C99.5458 31.5322 98.7327 30.7979 98.6946 30.7979C98.6184 30.7979 94.7564 34.3518 94.7183 34.4698C94.6802 34.5747 98.6057 38.2335 99.5839 39.0073C101.591 40.6072 104.284 41.6694 107.016 41.9317C116.442 42.8497 124.255 34.378 122.832 24.7654C122.108 19.7952 119.059 15.5987 114.587 13.4086C109.836 11.0874 103.865 11.6776 99.7617 14.8643C99.3679 15.179 97.7926 16.5691 96.2682 17.9723C94.7437 19.3755 91.9616 21.9065 90.1068 23.5982C88.252 25.29 84.9236 28.3324 82.7131 30.3651C78.2541 34.4698 77.8095 34.8501 76.7931 35.3878C73.8204 36.9221 70.2888 36.7254 67.5828 34.8501C65.8043 33.6305 64.5339 31.8994 63.8479 29.775C63.5557 28.8963 63.5176 28.5422 63.5176 26.9948C63.5176 25.4473 63.5557 25.0932 63.8479 24.2146C64.5339 22.0901 65.8043 20.3591 67.5828 19.1395C70.3523 17.2248 73.9729 17.0543 76.9075 18.6936C77.8857 19.2313 78.3303 19.5985 80.5535 21.6574C81.7222 22.7327 82.2939 23.1786 82.4083 23.0999C82.7131 22.9163 86.3083 19.6116 86.3083 19.5067C86.3083 19.3755 81.7604 15.2577 80.96 14.6807C78.3176 12.7398 74.8749 11.7956 71.3813 12.071Z" fill="white"/>
</svg>
