<svg width="161" height="66" viewBox="0 0 161 66" fill="none" xmlns="http://www.w3.org/2000/svg">
<path d="M0 36.5941V0H161V36.5941L80.5 66L0 36.5941Z" fill="#515595"/>
<path d="M46.3247 20.4C47.4407 20.4 48.4067 20.586 49.2227 20.958C50.0507 21.33 50.6867 21.858 51.1307 22.542C51.5747 23.226 51.7967 24.036 51.7967 24.972C51.7967 25.896 51.5747 26.706 51.1307 27.402C50.6867 28.086 50.0507 28.614 49.2227 28.986C48.4067 29.346 47.4407 29.526 46.3247 29.526H43.7867V33H40.8707V20.4H46.3247ZM46.1627 27.15C47.0387 27.15 47.7047 26.964 48.1607 26.592C48.6167 26.208 48.8447 25.668 48.8447 24.972C48.8447 24.264 48.6167 23.724 48.1607 23.352C47.7047 22.968 47.0387 22.776 46.1627 22.776H43.7867V27.15H46.1627ZM58.0227 33.144C57.0027 33.144 56.0847 32.934 55.2687 32.514C54.4647 32.082 53.8347 31.488 53.3787 30.732C52.9227 29.976 52.6947 29.118 52.6947 28.158C52.6947 27.198 52.9227 26.34 53.3787 25.584C53.8347 24.828 54.4647 24.24 55.2687 23.82C56.0847 23.388 57.0027 23.172 58.0227 23.172C59.0427 23.172 59.9547 23.388 60.7587 23.82C61.5627 24.24 62.1927 24.828 62.6487 25.584C63.1047 26.34 63.3327 27.198 63.3327 28.158C63.3327 29.118 63.1047 29.976 62.6487 30.732C62.1927 31.488 61.5627 32.082 60.7587 32.514C59.9547 32.934 59.0427 33.144 58.0227 33.144ZM58.0227 30.84C58.7427 30.84 59.3307 30.6 59.7867 30.12C60.2547 29.628 60.4887 28.974 60.4887 28.158C60.4887 27.342 60.2547 26.694 59.7867 26.214C59.3307 25.722 58.7427 25.476 58.0227 25.476C57.3027 25.476 56.7087 25.722 56.2407 26.214C55.7727 26.694 55.5387 27.342 55.5387 28.158C55.5387 28.974 55.7727 29.628 56.2407 30.12C56.7087 30.6 57.3027 30.84 58.0227 30.84ZM71.3703 27.96C71.9463 28.14 72.3903 28.416 72.7023 28.788C73.0263 29.16 73.1883 29.604 73.1883 30.12C73.1883 30.732 72.9783 31.272 72.5583 31.74C72.1383 32.196 71.5623 32.55 70.8303 32.802C70.0983 33.054 69.2703 33.18 68.3463 33.18C67.5903 33.18 66.8463 33.102 66.1143 32.946C65.3823 32.79 64.7043 32.556 64.0803 32.244L64.8363 30.282C65.8563 30.774 66.9843 31.02 68.2203 31.02C68.8803 31.02 69.3963 30.924 69.7683 30.732C70.1523 30.528 70.3443 30.246 70.3443 29.886C70.3443 29.574 70.2123 29.34 69.9483 29.184C69.6843 29.016 69.3003 28.932 68.7963 28.932H66.8163V27.186H68.5443C69.0363 27.186 69.4143 27.108 69.6783 26.952C69.9423 26.796 70.0743 26.568 70.0743 26.268C70.0743 25.956 69.9063 25.716 69.5703 25.548C69.2463 25.38 68.7783 25.296 68.1663 25.296C67.2303 25.296 66.2103 25.518 65.1063 25.962L64.4223 24.018C65.7663 23.43 67.0743 23.136 68.3463 23.136C69.2223 23.136 70.0023 23.244 70.6863 23.46C71.3823 23.676 71.9283 23.994 72.3243 24.414C72.7203 24.822 72.9183 25.302 72.9183 25.854C72.9183 26.31 72.7803 26.724 72.5043 27.096C72.2283 27.456 71.8503 27.744 71.3703 27.96ZM75.2309 23.316H78.0209V27.096H82.2329V23.316H85.0409V33H82.2329V29.382H78.0209V33H75.2309V23.316ZM87.7289 23.316H90.5189V29.076L95.2349 23.316H97.8089V33H95.0189V27.24L90.3209 33H87.7289V23.316ZM111.416 30.696V35.124H108.806V33H100.508V23.316H103.298V30.696H107.204V23.316H110.012V30.696H111.416ZM116.944 23.172C118.444 23.172 119.596 23.532 120.4 24.252C121.204 24.96 121.606 26.034 121.606 27.474V33H118.978V31.794C118.45 32.694 117.466 33.144 116.026 33.144C115.282 33.144 114.634 33.018 114.082 32.766C113.542 32.514 113.128 32.166 112.84 31.722C112.552 31.278 112.408 30.774 112.408 30.21C112.408 29.31 112.744 28.602 113.416 28.086C114.1 27.57 115.15 27.312 116.566 27.312H118.798C118.798 26.7 118.612 26.232 118.24 25.908C117.868 25.572 117.31 25.404 116.566 25.404C116.05 25.404 115.54 25.488 115.036 25.656C114.544 25.812 114.124 26.028 113.776 26.304L112.768 24.342C113.296 23.97 113.926 23.682 114.658 23.478C115.402 23.274 116.164 23.172 116.944 23.172ZM116.728 31.254C117.208 31.254 117.634 31.146 118.006 30.93C118.378 30.702 118.642 30.372 118.798 29.94V28.95H116.872C115.72 28.95 115.144 29.328 115.144 30.084C115.144 30.444 115.282 30.732 115.558 30.948C115.846 31.152 116.236 31.254 116.728 31.254Z" fill="white"/>
</svg>
