<svg width="259" height="66" viewBox="0 0 259 66" fill="none" xmlns="http://www.w3.org/2000/svg">
<path d="M0 36.5941V0H259V36.5941L129.5 66L0 36.5941Z" fill="#515595"/>
<path d="M39.2417 20.4C40.3577 20.4 41.3237 20.586 42.1397 20.958C42.9677 21.33 43.6037 21.858 44.0477 22.542C44.4917 23.226 44.7137 24.036 44.7137 24.972C44.7137 25.896 44.4917 26.706 44.0477 27.402C43.6037 28.086 42.9677 28.614 42.1397 28.986C41.3237 29.346 40.3577 29.526 39.2417 29.526H36.7037V33H33.7877V20.4H39.2417ZM39.0797 27.15C39.9557 27.15 40.6217 26.964 41.0777 26.592C41.5337 26.208 41.7617 25.668 41.7617 24.972C41.7617 24.264 41.5337 23.724 41.0777 23.352C40.6217 22.968 39.9557 22.776 39.0797 22.776H36.7037V27.15H39.0797ZM50.9397 33.144C49.9197 33.144 49.0017 32.934 48.1857 32.514C47.3817 32.082 46.7517 31.488 46.2957 30.732C45.8397 29.976 45.6117 29.118 45.6117 28.158C45.6117 27.198 45.8397 26.34 46.2957 25.584C46.7517 24.828 47.3817 24.24 48.1857 23.82C49.0017 23.388 49.9197 23.172 50.9397 23.172C51.9597 23.172 52.8717 23.388 53.6757 23.82C54.4797 24.24 55.1097 24.828 55.5657 25.584C56.0217 26.34 56.2497 27.198 56.2497 28.158C56.2497 29.118 56.0217 29.976 55.5657 30.732C55.1097 31.488 54.4797 32.082 53.6757 32.514C52.8717 32.934 51.9597 33.144 50.9397 33.144ZM50.9397 30.84C51.6597 30.84 52.2477 30.6 52.7037 30.12C53.1717 29.628 53.4057 28.974 53.4057 28.158C53.4057 27.342 53.1717 26.694 52.7037 26.214C52.2477 25.722 51.6597 25.476 50.9397 25.476C50.2197 25.476 49.6257 25.722 49.1577 26.214C48.6897 26.694 48.4557 27.342 48.4557 28.158C48.4557 28.974 48.6897 29.628 49.1577 30.12C49.6257 30.6 50.2197 30.84 50.9397 30.84ZM64.2873 27.96C64.8633 28.14 65.3073 28.416 65.6193 28.788C65.9433 29.16 66.1053 29.604 66.1053 30.12C66.1053 30.732 65.8953 31.272 65.4753 31.74C65.0553 32.196 64.4793 32.55 63.7473 32.802C63.0153 33.054 62.1873 33.18 61.2633 33.18C60.5073 33.18 59.7633 33.102 59.0313 32.946C58.2993 32.79 57.6213 32.556 56.9973 32.244L57.7533 30.282C58.7733 30.774 59.9013 31.02 61.1373 31.02C61.7973 31.02 62.3133 30.924 62.6853 30.732C63.0693 30.528 63.2613 30.246 63.2613 29.886C63.2613 29.574 63.1293 29.34 62.8653 29.184C62.6013 29.016 62.2173 28.932 61.7133 28.932H59.7333V27.186H61.4613C61.9533 27.186 62.3313 27.108 62.5953 26.952C62.8593 26.796 62.9913 26.568 62.9913 26.268C62.9913 25.956 62.8233 25.716 62.4873 25.548C62.1633 25.38 61.6953 25.296 61.0833 25.296C60.1473 25.296 59.1273 25.518 58.0233 25.962L57.3393 24.018C58.6833 23.43 59.9913 23.136 61.2633 23.136C62.1393 23.136 62.9193 23.244 63.6033 23.46C64.2993 23.676 64.8453 23.994 65.2413 24.414C65.6373 24.822 65.8353 25.302 65.8353 25.854C65.8353 26.31 65.6973 26.724 65.4213 27.096C65.1453 27.456 64.7673 27.744 64.2873 27.96ZM68.1479 23.316H70.9379V27.096H75.1499V23.316H77.9579V33H75.1499V29.382H70.9379V33H68.1479V23.316ZM80.6459 23.316H83.4359V29.076L88.1519 23.316H90.7259V33H87.9359V27.24L83.2379 33H80.6459V23.316ZM104.333 30.696V35.124H101.723V33H93.4252V23.316H96.2152V30.696H100.121V23.316H102.929V30.696H104.333ZM109.861 23.172C111.361 23.172 112.513 23.532 113.317 24.252C114.121 24.96 114.523 26.034 114.523 27.474V33H111.895V31.794C111.367 32.694 110.383 33.144 108.943 33.144C108.199 33.144 107.551 33.018 106.999 32.766C106.459 32.514 106.045 32.166 105.757 31.722C105.469 31.278 105.325 30.774 105.325 30.21C105.325 29.31 105.661 28.602 106.333 28.086C107.017 27.57 108.067 27.312 109.483 27.312H111.715C111.715 26.7 111.529 26.232 111.157 25.908C110.785 25.572 110.227 25.404 109.483 25.404C108.967 25.404 108.457 25.488 107.953 25.656C107.461 25.812 107.041 26.028 106.693 26.304L105.685 24.342C106.213 23.97 106.843 23.682 107.575 23.478C108.319 23.274 109.081 23.172 109.861 23.172ZM109.645 31.254C110.125 31.254 110.551 31.146 110.923 30.93C111.295 30.702 111.559 30.372 111.715 29.94V28.95H109.789C108.637 28.95 108.061 29.328 108.061 30.084C108.061 30.444 108.199 30.732 108.475 30.948C108.763 31.152 109.153 31.254 109.645 31.254ZM132.914 30.696V35.088H130.304V33H123.5V35.088H120.89V30.696H121.286C121.886 30.684 122.3 30.33 122.528 29.634C122.756 28.938 122.9 27.948 122.96 26.664L123.086 23.316H131.528V30.696H132.914ZM125.498 26.862C125.462 27.846 125.384 28.65 125.264 29.274C125.156 29.898 124.946 30.372 124.634 30.696H128.72V25.62H125.552L125.498 26.862ZM143.969 23.316V33H141.161V25.62H138.101L138.011 27.33C137.963 28.602 137.843 29.658 137.651 30.498C137.459 31.338 137.147 31.998 136.715 32.478C136.283 32.958 135.683 33.198 134.915 33.198C134.507 33.198 134.021 33.126 133.457 32.982L133.601 30.678C133.793 30.702 133.931 30.714 134.015 30.714C134.435 30.714 134.747 30.564 134.951 30.264C135.167 29.952 135.311 29.562 135.383 29.094C135.455 28.614 135.509 27.984 135.545 27.204L135.689 23.316H143.969ZM155.273 23.316V33H152.771V30.228H150.701L148.865 33H145.877L148.091 29.832C147.419 29.568 146.903 29.19 146.543 28.698C146.195 28.194 146.021 27.588 146.021 26.88C146.021 25.74 146.429 24.864 147.245 24.252C148.073 23.628 149.207 23.316 150.647 23.316H155.273ZM150.701 25.602C150.101 25.602 149.645 25.71 149.333 25.926C149.033 26.142 148.883 26.49 148.883 26.97C148.883 27.45 149.027 27.804 149.315 28.032C149.615 28.248 150.065 28.356 150.665 28.356H152.771V25.602H150.701ZM172.232 23.172C173.216 23.172 174.098 23.388 174.878 23.82C175.658 24.24 176.27 24.828 176.714 25.584C177.158 26.34 177.38 27.198 177.38 28.158C177.38 29.118 177.158 29.976 176.714 30.732C176.27 31.488 175.658 32.082 174.878 32.514C174.098 32.934 173.216 33.144 172.232 33.144C171.38 33.144 170.6 32.988 169.892 32.676C169.184 32.352 168.596 31.902 168.128 31.326C167.66 30.738 167.348 30.066 167.192 29.31H165.86V33H163.07V23.316H165.86V26.88H167.21C167.486 25.752 168.074 24.852 168.974 24.18C169.874 23.508 170.96 23.172 172.232 23.172ZM172.232 30.84C172.916 30.84 173.48 30.6 173.924 30.12C174.38 29.628 174.608 28.974 174.608 28.158C174.608 27.33 174.38 26.676 173.924 26.196C173.48 25.716 172.916 25.476 172.232 25.476C171.536 25.476 170.96 25.716 170.504 26.196C170.06 26.676 169.838 27.33 169.838 28.158C169.838 28.974 170.06 29.628 170.504 30.12C170.96 30.6 171.536 30.84 172.232 30.84ZM185.035 23.172C185.935 23.172 186.751 23.382 187.483 23.802C188.227 24.21 188.809 24.792 189.229 25.548C189.649 26.292 189.859 27.162 189.859 28.158C189.859 29.154 189.649 30.03 189.229 30.786C188.809 31.53 188.227 32.112 187.483 32.532C186.751 32.94 185.935 33.144 185.035 33.144C183.799 33.144 182.827 32.754 182.119 31.974V36.492H179.311V23.316H181.993V24.432C182.689 23.592 183.703 23.172 185.035 23.172ZM184.549 30.84C185.269 30.84 185.857 30.6 186.313 30.12C186.781 29.628 187.015 28.974 187.015 28.158C187.015 27.342 186.781 26.694 186.313 26.214C185.857 25.722 185.269 25.476 184.549 25.476C183.829 25.476 183.235 25.722 182.767 26.214C182.311 26.694 182.083 27.342 182.083 28.158C182.083 28.974 182.311 29.628 182.767 30.12C183.235 30.6 183.829 30.84 184.549 30.84ZM200.975 23.316V33H198.167V25.62H195.107L195.017 27.33C194.969 28.602 194.849 29.658 194.657 30.498C194.465 31.338 194.153 31.998 193.721 32.478C193.289 32.958 192.689 33.198 191.921 33.198C191.513 33.198 191.027 33.126 190.463 32.982L190.607 30.678C190.799 30.702 190.937 30.714 191.021 30.714C191.441 30.714 191.753 30.564 191.957 30.264C192.173 29.952 192.317 29.562 192.389 29.094C192.461 28.614 192.515 27.984 192.551 27.204L192.695 23.316H200.975ZM203.675 23.316H206.465V29.076L211.181 23.316H213.755V33H210.965V27.24L206.267 33H203.675V23.316ZM227.362 30.696V35.124H224.752V33H216.454V23.316H219.244V30.696H223.15V23.316H225.958V30.696H227.362Z" fill="white"/>
</svg>
