<svg width="539" height="567" viewBox="0 0 539 567" fill="none" xmlns="http://www.w3.org/2000/svg">
<path d="M325.141 0.635845C313.428 1.24047 300.042 2.44972 295.479 3.50781C290.915 4.41475 284.375 5.92631 281.028 6.53093C277.682 7.28671 272.51 8.3448 269.62 8.94943C256.234 11.2168 209.839 27.8439 198.887 34.0413C197.214 35.0994 192.499 37.3668 188.544 39.3318C181.546 42.6572 149.603 62.0052 147.93 63.9702C147.473 64.4237 144.431 66.691 141.085 69.2607C137.738 71.6792 134.239 74.4 133.175 75.3069C132.262 76.0627 129.22 78.4812 126.33 80.5974C119.18 85.8879 85.7155 119.445 80.2394 126.7C77.8056 130.025 73.8507 135.165 71.4169 138.037C69.1352 140.909 66.5493 144.083 65.7887 145.141C65.0282 146.048 62.138 150.432 59.4 154.966C56.662 159.35 53.9239 163.129 53.3155 163.431C52.707 163.733 52.0986 164.942 52.0986 166.001C52.0986 167.059 51.6423 168.268 51.0338 168.57C49.6648 169.024 47.0789 173.71 36.5831 193.964C32.6282 201.825 29.2817 208.778 29.2817 209.534C29.2817 210.138 27.6085 214.068 25.631 218.149C23.5014 222.382 20.4592 230.695 18.6338 236.742C16.8085 242.788 14.0704 251.404 12.5493 255.938C11.0282 260.473 8.89859 268.333 7.98592 273.321C6.92113 278.31 5.55211 285.414 4.79155 289.193C-1.59718 322.145 -1.59718 380.189 4.79155 413.141C5.55211 416.92 6.92113 424.024 7.98592 429.012C8.89859 434 11.0282 441.86 12.5493 446.395C14.0704 450.93 16.8085 459.546 18.6338 465.592C20.4592 471.638 23.5014 479.952 25.631 484.184C27.6085 488.265 29.2817 492.195 29.2817 492.8C29.2817 493.556 32.6282 500.509 36.5831 508.369C47.0789 528.624 49.6648 533.31 51.0338 533.763C51.6423 534.066 52.0986 535.275 52.0986 536.333C52.0986 537.391 52.707 538.6 53.3155 538.903C53.9239 539.054 56.662 542.984 59.4 547.367C62.138 551.902 65.0282 556.286 65.7887 557.192C66.5493 558.251 69.1352 561.425 71.4169 564.297C73.8507 567.169 77.8056 572.308 80.2394 575.634C85.7155 582.889 119.18 616.446 126.33 621.736C129.22 623.852 132.262 626.271 133.175 627.027C134.239 627.934 137.738 630.654 141.085 633.073C144.431 635.642 147.473 637.91 147.93 638.363C149.603 640.328 181.546 659.676 188.544 663.002C192.499 664.967 197.214 667.234 198.887 668.292C211.056 675.245 255.777 690.966 273.423 694.291C278.442 695.349 285.592 696.71 289.394 697.465C306.279 700.942 321.186 702 351 702C380.814 702 395.721 700.942 412.606 697.465C416.408 696.71 423.558 695.349 428.577 694.291C446.223 690.966 490.944 675.245 503.113 668.292C504.786 667.234 509.501 664.967 513.456 663.002C520.454 659.676 552.397 640.328 554.07 638.363C554.527 637.91 557.569 635.642 560.915 633.073C564.262 630.654 567.761 627.934 568.825 627.027C569.738 626.271 572.78 623.852 575.67 621.736C582.82 616.446 616.285 582.889 621.761 575.634C624.194 572.308 628.149 567.169 630.583 564.297C632.865 561.425 635.451 558.251 636.211 557.192C636.972 556.286 639.862 551.902 642.6 547.367C645.338 542.984 648.076 539.054 648.685 538.903C649.293 538.6 649.901 537.391 649.901 536.333C649.901 535.275 650.358 534.066 651.118 533.763C652.335 533.31 654.921 528.624 665.417 508.369C669.372 500.509 672.718 493.556 672.718 492.8C672.718 492.195 674.392 488.265 676.369 484.184C678.499 479.952 681.541 471.638 683.366 465.592C685.192 459.546 687.93 450.93 689.451 446.395C690.972 441.86 693.101 434 694.014 429.012C695.079 424.024 696.448 416.92 697.208 413.141C703.597 380.189 703.597 322.145 697.208 289.193C696.448 285.414 695.079 278.31 694.014 273.321C693.101 268.333 690.972 260.473 689.451 255.938C687.93 251.404 685.192 242.788 683.366 236.742C681.541 230.695 678.499 222.382 676.369 218.149C674.392 214.068 672.718 210.138 672.718 209.534C672.718 208.778 669.372 201.825 665.417 193.964C654.921 173.71 652.335 169.024 651.118 168.57C650.358 168.268 649.901 167.059 649.901 166.001C649.901 164.942 649.293 163.733 648.685 163.431C648.076 163.129 645.338 159.35 642.6 154.966C639.862 150.432 636.972 146.048 636.211 145.141C635.451 144.083 632.865 140.909 630.583 138.037C628.149 135.165 624.194 130.025 621.761 126.7C616.285 119.445 582.82 85.8879 575.67 80.5974C572.78 78.4812 569.738 76.0627 568.825 75.3069C567.761 74.4 564.262 71.6792 560.915 69.2607C557.569 66.691 554.527 64.4237 554.07 63.9702C552.397 62.0052 520.454 42.6572 513.456 39.3318C509.501 37.3668 504.786 35.0994 503.113 34.0413C490.944 27.0882 446.223 11.3679 428.577 8.04249C423.558 6.9844 416.408 5.624 412.606 4.86822C391.614 0.635845 357.085 -1.02687 325.141 0.635845ZM354.803 78.9347C354.803 79.6905 363.169 80.5974 373.513 81.0509C394.048 81.9578 410.932 84.6786 427.056 89.6668C442.268 94.5038 454.132 98.8873 456.718 101.003C457.935 101.91 462.803 104.48 467.366 106.596C472.082 108.712 476.797 111.584 477.862 112.945C478.927 114.305 480.752 115.363 481.817 115.363C483.034 115.363 484.099 115.817 484.403 116.421C484.707 117.177 486.837 118.84 489.423 120.2C491.856 121.561 494.138 123.375 494.442 124.282C495.051 126.247 487.597 126.549 486.837 124.584C485.772 121.561 464.172 120.049 446.527 121.712C437.096 122.619 429.338 123.979 429.338 124.584C429.338 125.188 424.775 126.851 419.146 128.212C413.366 129.723 408.194 131.537 407.434 132.293C406.521 132.897 404.696 133.502 403.175 133.502C401.654 133.502 400.437 134.107 400.437 134.711C400.437 135.467 397.546 137.13 394.048 138.641C390.397 140.153 383.856 143.025 379.445 144.99C374.273 147.257 368.645 148.618 363.625 148.618H355.868L356.78 140.153C357.237 135.014 358.758 130.479 360.431 128.665C368.037 120.503 373.665 115.363 374.882 115.363C375.642 115.363 378.532 113.701 381.27 111.584C384.008 109.468 387.963 107.805 389.941 107.654C391.918 107.654 392.679 107.201 391.614 106.747C388.572 105.538 371.839 109.015 364.69 112.34C347.197 120.2 340.961 122.921 339.592 122.921C338.679 122.921 338.07 123.526 338.07 124.433C338.07 125.188 336.093 126.851 333.811 128.06C329.4 130.328 321.946 136.374 312.972 144.839C310.234 147.257 306.431 150.734 304.454 152.548C302.476 154.362 295.175 161.617 288.33 168.873C274.031 183.686 267.49 186.86 265.665 179.756C264.448 174.768 266.121 160.559 268.859 154.21C269.924 151.49 272.358 148.013 274.031 146.501C278.29 142.723 278.138 140.455 273.879 142.874C267.186 146.804 251.518 163.431 244.673 173.861C240.87 179.756 237.676 185.046 237.676 185.5C237.676 186.104 236.307 189.279 234.786 192.906C233.113 196.383 229.614 204.545 227.028 210.894C224.442 217.242 220.792 224.045 218.966 226.01C217.141 227.975 214.403 231.451 212.882 233.87C208.47 240.521 205.276 243.846 203.146 243.846C202.082 243.846 201.169 244.451 201.169 245.055C201.169 245.811 197.67 247.323 193.411 248.381C186.262 250.346 185.501 251.101 181.699 258.81C177.135 268.333 178.961 267.426 151.732 271.81C143.366 273.17 132.11 275.589 126.634 277.1C121.158 278.612 112.183 281.03 106.707 282.391C96.9718 284.809 96.3634 285.112 94.0817 291.309C92.7127 294.786 91.6479 302.041 91.6479 307.785C91.6479 317.157 92.7127 321.087 97.1239 326.982C98.0366 328.191 99.2535 333.028 99.862 337.563C100.318 342.4 102.6 349.353 105.338 354.19C107.772 358.725 110.662 364.166 111.727 366.282C113.552 369.608 113.704 368.55 114.161 356.004C114.617 342.249 114.617 341.946 118.724 340.435C121.006 339.528 125.721 339.225 129.22 339.83C134.392 340.586 136.673 342.097 141.389 347.539C148.69 356.457 150.515 360.841 152.645 375.805C154.775 390.316 153.71 397.874 148.69 403.618C145.648 407.246 143.975 407.85 137.434 407.699C127.394 407.548 122.983 403.618 119.485 391.374L116.746 382.154L115.682 398.025C114.313 416.164 115.377 429.314 118.572 437.175C123.287 448.662 124.352 450.93 125.417 450.93C126.177 450.93 126.634 451.837 126.634 453.046C126.634 454.104 129.22 456.371 132.262 457.732C136.825 459.999 140.172 460.301 151.58 459.395C159.186 458.79 168.161 457.732 171.507 456.976C180.938 454.709 196.606 455.162 203.755 457.883C209.231 459.999 210.6 461.36 211.969 466.197C213.794 472.243 212.121 479.498 207.71 483.882C206.645 484.94 205.732 486.905 205.732 488.114C205.732 489.323 205.124 490.23 204.211 490.23C203.451 490.23 202.69 491.44 202.69 492.951C202.69 494.463 201.93 496.428 200.865 497.486C199.8 498.544 198.887 505.951 198.431 515.625C197.823 529.38 198.279 533.008 200.561 537.996C202.082 541.17 203.755 544.193 204.211 544.647C204.82 545.1 205.885 546.612 206.797 548.274C208.014 550.39 208.166 549.181 207.558 543.135C206.037 527.264 216.38 500.811 224.138 500.811C226.724 500.811 227.028 502.021 227.028 513.206C227.028 520.159 228.093 528.926 229.158 532.856C232.504 543.74 241.631 561.576 246.803 567.169C249.237 570.041 252.279 573.82 253.496 575.482C255.169 578.052 255.169 576.843 253.192 568.832C248.324 547.972 249.845 527.415 257.146 513.357C260.493 506.858 262.014 507.009 262.014 513.962C262.014 521.217 265.817 543.135 268.403 550.39C269.468 553.565 272.054 558.099 274.183 560.669C276.313 563.239 278.899 566.564 279.963 568.227C281.637 570.797 281.637 570.797 280.268 567.773C276.769 560.216 279.507 534.066 284.07 534.066C285.896 534.217 293.958 550.542 293.958 554.169C293.958 555.681 294.566 556.739 295.327 556.739C296.087 556.739 297.304 558.704 298.217 560.971C300.499 567.622 321.186 587.121 331.986 592.714C338.983 596.342 364.538 602.086 374.273 602.086C383.096 602.086 386.442 603.749 381.575 605.562C380.358 606.016 367.276 606.772 352.217 607.376C325.749 608.283 302.324 606.923 287.113 603.749C274.335 601.028 243.152 589.842 239.806 586.819C238.132 585.156 236.003 583.947 235.09 583.947C233.265 583.947 217.597 576.238 216.38 574.727C215.924 574.273 211.665 571.552 206.797 568.832C202.082 566.262 198.127 563.541 198.127 562.936C198.127 562.332 195.541 560.518 192.499 558.855C189.456 557.344 184.893 554.169 182.307 552.053C167.704 539.507 159.034 531.496 156.296 528.019C154.623 525.903 150.668 521.368 147.321 517.741C143.975 514.264 139.563 508.369 137.434 504.892C135.456 501.416 132.87 498.09 131.958 497.486C130.893 496.881 129.22 494.16 128.003 491.44C126.938 488.719 124.808 485.242 123.439 483.731C119.332 479.347 101.383 441.86 98.493 432.035C97.1239 427.047 94.9944 419.943 93.9296 416.164C84.4986 383.968 81.7606 342.551 86.9324 305.064C88.4535 293.123 95.7549 262.589 97.8845 258.659C98.6451 257.148 99.2535 255.032 99.2535 253.973C99.2535 252.008 117.203 214.975 118.876 213.615C119.332 213.161 121.918 208.929 124.352 204.092C126.938 199.255 129.98 194.116 131.197 192.755C132.414 191.395 135.608 187.162 138.042 183.384C140.628 179.605 144.735 174.465 147.169 171.896C149.755 169.326 155.839 162.977 161.011 157.536C166.031 152.245 173.18 145.292 176.983 142.269C180.634 139.095 184.741 135.618 185.958 134.409C187.175 133.351 190.521 131.235 193.259 129.874C195.997 128.514 198.583 126.398 199.039 125.188C199.496 124.13 201.777 122.468 203.907 121.561C209.383 119.445 216.228 115.363 221.552 111.131C223.986 109.317 226.572 107.805 227.332 107.805C229.462 107.805 239.501 103.12 242.239 101.003C243.456 99.9454 245.89 98.7361 247.563 98.2827C249.237 97.8292 255.473 95.713 261.254 93.5968C281.789 85.8879 301.107 82.2601 327.118 81.0509C337.31 80.5974 345.676 79.6905 345.676 78.9347C345.676 78.1789 347.806 77.5743 350.239 77.5743C352.825 77.5743 354.803 78.1789 354.803 78.9347ZM488.662 130.328C488.662 131.084 486.228 132.142 483.338 132.595C480.448 133.2 478.014 134.258 478.014 135.014C478.014 135.921 476.189 136.525 474.059 136.525C470.408 136.525 466.301 138.037 455.197 143.176C446.983 146.955 436.944 154.059 436.183 156.478C435.575 157.989 434.054 159.199 432.532 159.199C431.011 159.199 428.425 161.012 426.904 163.129C425.383 165.396 421.885 169.779 419.146 172.954C413.975 179.302 405 196.988 405 200.766C405 202.127 403.935 204.848 402.566 206.813C401.349 208.778 400.437 212.254 400.741 214.673L401.197 218.905L409.563 211.045C417.017 204.092 422.645 199.255 427.056 195.929C432.685 191.697 452.915 183.232 460.673 181.721C470.713 179.907 495.203 180.36 497.18 182.325C497.941 182.93 497.485 184.139 496.42 184.895C495.051 185.651 498.093 186.407 504.786 187.011C516.803 188.069 530.645 190.488 535.056 192.302C536.73 193.058 542.054 194.871 546.921 196.383C551.637 197.895 555.592 199.708 555.592 200.313C555.592 200.918 556.504 201.522 557.569 201.522C560.611 201.522 576.887 217.394 576.887 220.266C576.887 221.626 575.67 222.684 573.845 222.684C571.411 222.684 573.237 225.103 581.451 233.114C587.231 238.858 592.099 244.148 592.099 244.904C592.099 245.811 594.228 248.532 596.662 251.101C599.248 253.822 601.225 256.845 601.225 258.055C601.225 259.113 602.29 260.927 603.507 261.985C604.724 263.043 605.789 264.554 605.789 265.31C605.789 266.217 606.701 268.938 607.766 271.508C611.569 280.426 613.546 287.681 614.459 295.995C614.915 300.529 615.98 304.308 616.589 304.308C617.349 304.308 617.958 318.971 617.958 336.807C617.958 354.643 617.349 369.305 616.589 369.305C615.98 369.305 614.915 373.84 614.307 379.282C613.699 384.723 612.634 390.316 612.025 391.677C611.265 393.037 609.439 398.327 607.918 403.316C606.397 408.304 604.42 413.443 603.507 414.652C602.594 415.862 600.921 418.885 599.704 421.454C598.487 423.873 596.966 426.594 596.358 427.501C595.293 428.861 592.251 433.093 579.625 450.476C577.648 453.197 572.932 458.941 568.977 463.173C564.87 467.557 561.676 471.638 561.676 472.243C561.676 472.999 560.459 473.603 558.938 473.603C557.569 473.603 555.439 474.964 554.375 476.626C553.31 478.289 549.355 481.161 545.248 482.975C541.293 484.789 537.642 486.905 537.186 487.661C535.665 489.777 515.738 490.684 513 488.87C511.327 487.661 510.718 484.335 510.718 476.324V465.29L519.997 456.22C529.58 447 535.513 441.86 551.789 428.559C556.808 424.477 563.045 418.885 565.479 416.164C568.065 413.443 571.107 409.966 572.628 408.606C575.975 404.827 586.014 389.258 586.014 387.595C586.014 386.84 586.927 385.177 588.144 383.968C590.425 381.851 595.141 369.154 595.141 365.527C595.141 364.317 595.749 363.259 596.51 363.259C598.335 363.259 600.161 352.225 600.161 341.342C600.161 330.912 598.335 319.424 596.662 319.424C596.054 319.424 594.989 317.61 594.38 315.343C591.49 303.855 575.823 288.739 557.417 279.821L544.183 273.473H523.648C507.828 273.473 501.896 273.926 497.789 275.891C494.899 277.251 489.727 279.216 486.532 280.123C479.383 282.391 470.104 287.53 468.431 290.251C467.823 291.309 466.301 292.216 465.085 292.216C464.02 292.216 462.803 292.669 462.499 293.274C462.346 294.03 458.239 296.448 453.372 298.867C445.614 302.797 442.876 303.25 422.949 304.157C398.763 305.366 394.504 306.727 385.834 316.099C382.944 319.273 380.662 322.145 380.662 322.598C380.662 323.203 376.859 325.47 372.296 327.738C367.732 329.854 363.93 332.423 363.93 333.179C363.93 333.935 361.8 334.54 359.366 334.54C356.78 334.54 351.761 335.9 348.262 337.563C342.33 340.435 341.417 341.493 339.896 348.295C338.527 354.039 338.527 356.457 340.048 358.725C340.961 360.387 342.33 361.748 342.938 361.748C343.699 361.748 344.155 363.713 344.155 366.131C344.155 369.154 345.372 371.271 348.414 373.084C350.696 374.596 353.89 377.317 355.563 378.979C358.454 382.154 374.273 389.712 375.49 388.653C375.794 388.351 373.665 386.84 370.927 385.328C365.603 382.456 360.279 375.049 359.823 369.608C359.518 366.282 363.321 360.236 365.755 360.236C366.363 360.236 370.318 358.12 374.577 355.55C387.051 347.992 400.893 343.609 413.062 343.609C421.58 343.609 425.383 344.516 433.293 348.295C438.617 350.713 443.028 353.736 443.028 354.946C443.028 356.155 444.245 358.271 445.766 359.783C451.546 365.375 452.611 374.596 449.873 394.397C448.504 404.223 446.831 412.687 446.223 413.141C445.614 413.594 444.093 416.92 442.572 420.699L439.986 427.501L446.223 420.699C449.569 416.92 453.98 411.327 455.654 408.001C457.479 404.827 459.761 400.746 460.825 398.932C461.89 397.118 463.411 389.258 464.324 381.398C466.454 361.748 468.887 351.771 472.234 348.295C473.755 346.632 474.972 344.667 474.972 343.911C474.972 343.155 480.296 337.109 486.989 330.61C497.028 320.633 500.679 317.912 509.806 314.436C526.082 308.238 541.597 308.994 554.07 316.552C555.287 317.308 557.873 318.517 559.851 319.424C561.676 320.18 563.197 321.842 563.197 323.203C563.197 324.412 563.654 325.47 564.414 325.47C565.023 325.47 566.696 327.586 568.217 330.156C573.085 338.923 571.107 360.085 563.806 373.991C561.372 378.828 548.442 392.584 543.118 395.758C534.296 401.351 522.127 410.42 522.127 411.629C522.127 412.385 520.606 413.443 518.78 414.048C508.589 417.222 472.234 451.232 466.301 463.173C459.608 476.777 456.718 484.335 456.718 488.719C456.718 494.312 467.67 516.834 472.386 520.764C482.273 529.38 494.899 532.101 510.414 528.926C523.648 526.205 527.299 524.845 538.859 518.043C550.572 511.241 554.07 510.334 554.07 514.264C554.07 518.648 546.465 527.415 532.014 539.356C526.994 543.437 521.975 547.821 520.91 548.728C519.845 549.786 517.868 550.693 516.803 550.693C515.738 550.693 513.761 551.6 512.544 552.809C509.806 555.53 481.969 568.832 478.927 568.832C477.71 568.832 476.341 569.436 475.885 570.192C475.428 570.948 470.561 572.006 465.085 572.61C459.608 573.064 455.197 574.273 455.197 575.029C455.197 575.785 448.2 576.389 439.682 576.389C429.642 576.389 424.623 576.843 425.687 577.901C427.665 579.866 445.462 582.133 453.372 581.226C459 580.622 459.761 580.924 459.761 583.645C459.761 588.633 450.786 591.656 432.685 592.563C408.194 593.923 399.676 591.958 371.535 578.959C364.69 575.785 356.324 568.076 356.324 564.901C356.324 563.995 354.955 562.029 353.282 560.518C351.608 559.006 350.239 557.041 350.239 556.134C350.239 555.227 349.327 552.809 348.262 550.693C342.634 539.961 337.31 515.927 338.527 506.706C340.504 491.591 341.569 487.661 344.915 480.254C346.893 475.871 349.023 469.824 349.631 466.65C350.087 463.325 351.761 459.395 353.13 457.732C357.085 453.046 362.713 437.779 361.8 434.605C361.192 432.942 358.301 429.314 355.259 426.14C345.372 416.466 335.941 419.338 324.989 435.814C322.555 439.593 316.927 445.035 312.515 447.907C307.8 450.93 304.606 454.104 304.606 455.767C304.606 457.278 304.149 458.488 303.389 458.488C301.563 458.488 298.673 466.348 296.848 475.871C293.349 494.916 300.955 512.904 312.515 512.904C320.73 512.904 323.62 509.276 324.685 497.032L325.141 492.649L329.4 496.73C334.572 502.021 335.028 510.636 330.313 516.078C328.639 518.043 325.901 521.217 324.228 523.031C321.794 525.903 319.817 526.508 311.603 526.508C302.02 526.508 301.715 526.357 293.349 518.648C288.634 514.415 284.831 510.183 284.831 509.276C284.831 508.369 283.462 505.951 281.789 503.834C280.115 501.718 278.746 498.997 278.746 497.788C278.746 496.579 277.834 493.858 276.769 491.742C273.118 484.789 269.924 471.487 268.859 459.999C267.642 444.279 265.056 434.605 260.949 430.675C258.668 428.559 257.451 425.687 257.451 422.059C257.451 417.827 256.69 416.315 253.648 414.955C250.149 413.443 249.845 412.385 249.845 404.223C249.845 398.327 249.085 394.7 247.563 393.49C244.217 390.619 237.676 378.979 237.676 375.503C237.676 373.084 236.763 372.329 233.417 372.329C230.983 372.329 227.789 370.968 226.268 369.154C223.225 365.98 220.792 351.318 222.313 345.574C223.682 340.586 230.375 333.784 240.262 327.435C242.544 325.924 245.586 323.656 246.955 322.447C248.172 321.238 252.279 317.912 256.082 315.343C270.837 304.46 276.617 299.169 279.203 293.879C280.724 290.855 284.375 286.774 287.265 284.658C290.307 282.542 294.87 279.065 297.456 276.647C299.89 274.379 302.628 272.566 303.389 272.566C304.149 272.566 305.67 271.659 306.887 270.601C307.952 269.694 310.842 267.426 313.124 265.764C319.208 261.531 333.507 247.171 333.507 245.358C333.507 244.451 334.115 243.846 335.028 243.846C335.789 243.846 336.854 242.183 337.462 240.067C337.918 237.951 338.983 236.288 339.744 236.288C340.504 236.288 341.113 235.532 341.113 234.777C341.113 233.87 344.003 228.277 347.349 222.231C350.848 216.184 354.803 209.231 356.02 206.813C357.389 204.243 359.67 200.918 361.192 199.406C362.713 197.743 364.234 195.174 364.842 193.662C365.299 192.151 366.363 190.941 367.124 190.941C367.885 190.941 368.493 190.034 368.493 188.976C368.493 188.069 370.623 184.895 373.056 182.023C375.49 179.302 379.445 174.616 381.727 171.593C384.008 168.721 387.659 164.791 389.637 163.129C391.614 161.315 394.961 158.14 397.09 155.722C399.22 153.455 401.501 151.641 402.262 151.641C403.023 151.641 405 150.432 406.673 148.92C410.78 144.99 428.121 136.525 431.924 136.525C433.749 136.525 435.423 135.921 435.727 135.014C436.031 134.258 439.986 132.595 444.549 131.386C453.676 128.967 488.662 128.06 488.662 130.328Z" fill="#515595" fill-opacity="0.05"/>
</svg>
